<?xml version="1.0" encoding="utf-8"?>
<!-- Generator: Adobe Illustrator 16.0.0, SVG Export Plug-In . SVG Version: 6.00 Build 0)  -->
<!DOCTYPE svg PUBLIC "-//W3C//DTD SVG 1.1//EN" "http://www.w3.org/Graphics/SVG/1.1/DTD/svg11.dtd">
<svg version="1.1" id="Layer_1" xmlns="http://www.w3.org/2000/svg" xmlns:xlink="http://www.w3.org/1999/xlink" x="0px" y="0px"
	 width="564.942px" height="145.917px" viewBox="0 0 564.942 145.917" enable-background="new 0 0 564.942 145.917"
	 xml:space="preserve">
<g>
	<g>
		<path d="M24.858,31.066c0,0.433-0.013,0.801-0.039,1.104c-0.026,0.303-0.065,0.563-0.117,0.779
			c-0.052,0.217-0.121,0.403-0.208,0.559c-0.087,0.156-0.226,0.333-0.416,0.532c-0.191,0.2-0.559,0.455-1.104,0.767
			s-1.212,0.61-2,0.896s-1.688,0.523-2.701,0.714c-1.013,0.19-2.108,0.286-3.286,0.286c-2.303,0-4.381-0.355-6.234-1.065
			s-3.429-1.771-4.727-3.182c-1.299-1.411-2.295-3.173-2.987-5.286C0.346,25.058,0,22.598,0,19.793c0-2.857,0.381-5.394,1.143-7.611
			C1.905,9.966,2.97,8.104,4.338,6.598C5.706,5.091,7.347,3.948,9.26,3.169C11.173,2.39,13.282,2,15.585,2
			c0.935,0,1.835,0.078,2.702,0.234c0.866,0.156,1.666,0.359,2.402,0.61c0.736,0.251,1.398,0.542,1.987,0.87
			c0.588,0.329,1,0.61,1.234,0.844c0.233,0.234,0.394,0.429,0.48,0.584c0.086,0.156,0.156,0.355,0.208,0.597
			c0.052,0.243,0.091,0.529,0.117,0.857c0.026,0.329,0.039,0.736,0.039,1.221c0,0.52-0.018,0.961-0.052,1.325
			s-0.095,0.659-0.182,0.883c-0.087,0.225-0.191,0.39-0.312,0.494c-0.122,0.104-0.26,0.156-0.416,0.156
			c-0.26,0-0.589-0.151-0.987-0.455c-0.399-0.303-0.914-0.641-1.545-1.013c-0.633-0.372-1.386-0.71-2.26-1.013
			c-0.875-0.303-1.918-0.455-3.13-0.455c-1.333,0-2.524,0.272-3.571,0.818c-1.048,0.546-1.94,1.325-2.676,2.338
			s-1.294,2.238-1.675,3.675c-0.381,1.438-0.571,3.057-0.571,4.857c0,1.974,0.203,3.685,0.61,5.13
			c0.407,1.446,0.987,2.636,1.74,3.571c0.753,0.935,1.663,1.632,2.728,2.091s2.264,0.688,3.598,0.688
			c1.212,0,2.26-0.143,3.143-0.428c0.883-0.286,1.641-0.602,2.273-0.948c0.632-0.346,1.151-0.658,1.559-0.935
			c0.407-0.277,0.723-0.416,0.948-0.416c0.173,0,0.312,0.035,0.416,0.104c0.104,0.07,0.19,0.208,0.26,0.416
			c0.069,0.208,0.121,0.498,0.156,0.87S24.858,30.443,24.858,31.066z"/>
		<path d="M51.509,35.274c0,0.173-0.052,0.325-0.156,0.455c-0.104,0.13-0.277,0.238-0.52,0.325c-0.243,0.087-0.576,0.151-1,0.195
			c-0.424,0.043-0.948,0.065-1.571,0.065c-0.641,0-1.173-0.022-1.598-0.065c-0.424-0.043-0.758-0.108-1-0.195
			c-0.243-0.086-0.416-0.195-0.52-0.325s-0.156-0.281-0.156-0.455V22.053c0-1.125-0.083-2.008-0.247-2.649
			c-0.165-0.641-0.403-1.19-0.714-1.649c-0.312-0.458-0.714-0.813-1.208-1.065c-0.494-0.251-1.069-0.376-1.727-0.376
			c-0.832,0-1.672,0.303-2.52,0.909c-0.849,0.606-1.731,1.489-2.649,2.649v15.403c0,0.173-0.052,0.325-0.156,0.455
			s-0.282,0.238-0.532,0.325c-0.251,0.087-0.584,0.151-1,0.195c-0.416,0.043-0.944,0.065-1.585,0.065s-1.168-0.022-1.584-0.065
			c-0.416-0.043-0.75-0.108-1-0.195c-0.251-0.086-0.428-0.195-0.532-0.325s-0.156-0.281-0.156-0.455V1.117
			c0-0.173,0.052-0.329,0.156-0.467s0.281-0.255,0.532-0.351s0.584-0.169,1-0.221C31.482,0.026,32.01,0,32.65,0
			s1.169,0.026,1.585,0.078c0.416,0.052,0.749,0.125,1,0.221c0.25,0.095,0.428,0.212,0.532,0.351s0.156,0.294,0.156,0.467v12.806
			c1.125-1.108,2.273-1.936,3.442-2.481s2.385-0.818,3.649-0.818c1.576,0,2.905,0.259,3.987,0.779c1.082,0.52,1.957,1.23,2.624,2.13
			c0.666,0.9,1.147,1.952,1.441,3.156s0.442,2.663,0.442,4.377V35.274z"/>
		<path d="M79.328,23.014c0,0.797-0.178,1.386-0.532,1.767c-0.355,0.381-0.844,0.571-1.468,0.571H63.223
			c0,0.987,0.117,1.883,0.351,2.688c0.233,0.805,0.605,1.49,1.117,2.052c0.51,0.563,1.169,0.991,1.974,1.286
			s1.771,0.441,2.896,0.441c1.143,0,2.147-0.082,3.013-0.247c0.866-0.165,1.615-0.346,2.247-0.545
			c0.632-0.199,1.156-0.381,1.571-0.545s0.753-0.247,1.013-0.247c0.156,0,0.286,0.031,0.39,0.091c0.104,0.061,0.19,0.169,0.26,0.325
			c0.069,0.156,0.117,0.377,0.143,0.663s0.039,0.646,0.039,1.078c0,0.381-0.009,0.706-0.026,0.974
			c-0.018,0.269-0.043,0.498-0.078,0.688c-0.035,0.191-0.087,0.351-0.156,0.48c-0.069,0.13-0.16,0.256-0.272,0.377
			c-0.113,0.121-0.42,0.286-0.922,0.493c-0.502,0.208-1.143,0.412-1.922,0.611c-0.779,0.199-1.671,0.372-2.676,0.519
			s-2.078,0.221-3.221,0.221c-2.061,0-3.866-0.26-5.416-0.779s-2.844-1.308-3.883-2.364s-1.814-2.39-2.325-4
			c-0.511-1.61-0.766-3.498-0.766-5.662c0-2.061,0.268-3.918,0.805-5.572c0.537-1.654,1.316-3.056,2.338-4.208
			c1.021-1.151,2.264-2.03,3.728-2.637c1.463-0.606,3.112-0.909,4.948-0.909c1.939,0,3.597,0.286,4.974,0.857
			c1.376,0.571,2.506,1.364,3.39,2.376c0.883,1.013,1.533,2.212,1.948,3.598c0.416,1.386,0.623,2.893,0.623,4.52V23.014z
			 M72.99,21.144c0.052-1.835-0.316-3.277-1.104-4.325c-0.788-1.047-2.004-1.572-3.649-1.572c-0.831,0-1.554,0.156-2.169,0.468
			s-1.126,0.732-1.532,1.26c-0.407,0.528-0.719,1.152-0.935,1.87c-0.217,0.719-0.342,1.485-0.377,2.299H72.99z"/>
		<path d="M102.238,31.585c0,0.451-0.013,0.828-0.039,1.13s-0.061,0.558-0.104,0.766c-0.043,0.208-0.095,0.376-0.156,0.506
			s-0.195,0.295-0.402,0.494c-0.208,0.199-0.563,0.441-1.065,0.727c-0.502,0.286-1.074,0.542-1.714,0.767
			c-0.641,0.225-1.338,0.406-2.091,0.545c-0.753,0.138-1.528,0.208-2.325,0.208c-1.784,0-3.364-0.277-4.74-0.831
			c-1.377-0.554-2.533-1.372-3.468-2.455c-0.935-1.082-1.641-2.403-2.117-3.961c-0.476-1.558-0.714-3.342-0.714-5.351
			c0-2.32,0.29-4.325,0.871-6.013c0.58-1.688,1.39-3.086,2.429-4.195c1.039-1.108,2.268-1.931,3.688-2.468
			c1.42-0.537,2.979-0.805,4.676-0.805c0.692,0,1.372,0.061,2.039,0.182c0.667,0.122,1.29,0.286,1.87,0.494
			c0.58,0.208,1.1,0.441,1.559,0.701c0.458,0.26,0.783,0.485,0.974,0.675c0.19,0.191,0.325,0.351,0.402,0.48
			c0.078,0.13,0.139,0.299,0.182,0.507c0.043,0.208,0.078,0.463,0.104,0.766c0.026,0.303,0.039,0.671,0.039,1.104
			c0,1.004-0.087,1.71-0.26,2.117c-0.173,0.407-0.398,0.611-0.675,0.611c-0.294,0-0.606-0.121-0.935-0.364
			c-0.329-0.242-0.719-0.511-1.169-0.805s-0.987-0.563-1.61-0.805s-1.368-0.364-2.234-0.364c-1.697,0-2.996,0.654-3.896,1.961
			c-0.901,1.308-1.351,3.226-1.351,5.753c0,1.247,0.113,2.347,0.338,3.299c0.225,0.953,0.559,1.75,1,2.39
			c0.441,0.641,0.996,1.122,1.663,1.442c0.666,0.321,1.441,0.48,2.325,0.48c0.9,0,1.675-0.134,2.325-0.403
			c0.649-0.268,1.216-0.567,1.701-0.896c0.485-0.329,0.892-0.627,1.221-0.896s0.606-0.403,0.832-0.403
			c0.156,0,0.286,0.043,0.39,0.13c0.104,0.087,0.186,0.247,0.247,0.481c0.061,0.233,0.108,0.532,0.143,0.896
			C102.22,30.547,102.238,31.014,102.238,31.585z"/>
		<path d="M128.499,35.3c0,0.173-0.048,0.325-0.143,0.455c-0.096,0.13-0.269,0.233-0.52,0.312c-0.251,0.078-0.594,0.138-1.026,0.182
			c-0.433,0.043-0.996,0.065-1.688,0.065c-0.71,0-1.286-0.017-1.728-0.052c-0.441-0.035-0.805-0.091-1.091-0.169
			c-0.286-0.078-0.507-0.186-0.663-0.325c-0.156-0.138-0.294-0.32-0.416-0.545l-7.714-12.208v12.26c0,0.173-0.052,0.325-0.156,0.455
			c-0.104,0.13-0.282,0.238-0.532,0.325c-0.251,0.087-0.584,0.151-1,0.195c-0.416,0.043-0.944,0.065-1.584,0.065
			c-0.641,0-1.169-0.022-1.584-0.065c-0.416-0.043-0.75-0.108-1-0.195c-0.251-0.086-0.429-0.195-0.533-0.325
			s-0.156-0.281-0.156-0.455V1.117c0-0.173,0.052-0.329,0.156-0.467s0.281-0.255,0.533-0.351c0.25-0.095,0.584-0.169,1-0.221
			C109.069,0.026,109.597,0,110.238,0c0.64,0,1.169,0.026,1.584,0.078c0.416,0.052,0.749,0.125,1,0.221
			c0.25,0.095,0.429,0.212,0.532,0.351c0.104,0.139,0.156,0.294,0.156,0.467v20.339l6.857-9.221c0.138-0.208,0.294-0.39,0.467-0.545
			c0.173-0.156,0.403-0.277,0.688-0.364c0.286-0.086,0.64-0.151,1.065-0.195c0.424-0.043,0.965-0.065,1.624-0.065
			c0.64,0,1.182,0.022,1.623,0.065c0.442,0.043,0.796,0.108,1.065,0.195c0.268,0.087,0.455,0.195,0.558,0.325
			c0.104,0.13,0.156,0.29,0.156,0.48c0,0.26-0.064,0.537-0.194,0.831c-0.13,0.295-0.325,0.606-0.584,0.935l-6.78,7.689l7.845,12.13
			c0.208,0.347,0.359,0.645,0.455,0.896C128.451,34.863,128.499,35.092,128.499,35.3z"/>
		<path d="M151.564,4.26c0,1.316-0.269,2.226-0.805,2.728c-0.537,0.502-1.533,0.753-2.987,0.753c-1.472,0-2.463-0.243-2.974-0.728
			c-0.511-0.484-0.766-1.359-0.766-2.624c0-1.315,0.264-2.229,0.792-2.74c0.528-0.511,1.528-0.766,3-0.766
			c1.455,0,2.441,0.247,2.961,0.74S151.564,2.996,151.564,4.26z M151.071,35.274c0,0.173-0.052,0.325-0.156,0.455
			s-0.282,0.238-0.532,0.325c-0.251,0.087-0.584,0.151-1,0.195c-0.416,0.043-0.944,0.065-1.584,0.065
			c-0.641,0-1.169-0.022-1.584-0.065c-0.416-0.043-0.75-0.108-1-0.195c-0.251-0.086-0.428-0.195-0.532-0.325
			s-0.156-0.281-0.156-0.455V12.156c0-0.173,0.052-0.325,0.156-0.455s0.281-0.242,0.532-0.337s0.584-0.169,1-0.221
			c0.416-0.052,0.943-0.078,1.584-0.078c0.64,0,1.168,0.026,1.584,0.078c0.416,0.052,0.749,0.126,1,0.221
			c0.25,0.095,0.428,0.208,0.532,0.337s0.156,0.282,0.156,0.455V35.274z"/>
		<path d="M171.306,32.988c0,0.762-0.048,1.347-0.143,1.753c-0.095,0.407-0.221,0.693-0.376,0.857
			c-0.156,0.165-0.386,0.312-0.688,0.442c-0.303,0.13-0.658,0.242-1.065,0.337c-0.407,0.095-0.849,0.169-1.325,0.221
			c-0.477,0.052-0.957,0.078-1.441,0.078c-1.299,0-2.425-0.165-3.377-0.494c-0.953-0.329-1.74-0.835-2.364-1.52
			c-0.624-0.684-1.083-1.545-1.376-2.584c-0.295-1.039-0.442-2.268-0.442-3.688V16.52h-2.779c-0.329,0-0.581-0.203-0.753-0.61
			c-0.173-0.407-0.26-1.086-0.26-2.039c0-0.502,0.021-0.926,0.065-1.273c0.043-0.346,0.107-0.619,0.194-0.818
			c0.086-0.199,0.195-0.342,0.325-0.429c0.13-0.086,0.281-0.13,0.455-0.13h2.753V6.052c0-0.173,0.047-0.329,0.143-0.468
			c0.095-0.138,0.268-0.255,0.52-0.351c0.25-0.095,0.588-0.165,1.013-0.208s0.948-0.065,1.572-0.065c0.64,0,1.173,0.022,1.597,0.065
			s0.757,0.113,1,0.208c0.242,0.095,0.416,0.212,0.519,0.351c0.104,0.139,0.156,0.295,0.156,0.468v5.169h5.039
			c0.173,0,0.325,0.043,0.455,0.13c0.13,0.087,0.238,0.23,0.325,0.429c0.086,0.199,0.151,0.472,0.195,0.818
			c0.043,0.347,0.065,0.771,0.065,1.273c0,0.953-0.087,1.632-0.26,2.039c-0.173,0.407-0.425,0.61-0.753,0.61h-5.065v10.884
			c0,1.264,0.199,2.212,0.597,2.844c0.398,0.632,1.108,0.948,2.13,0.948c0.346,0,0.658-0.03,0.935-0.091
			c0.277-0.06,0.524-0.13,0.741-0.208c0.216-0.078,0.398-0.147,0.545-0.208c0.146-0.061,0.281-0.091,0.402-0.091
			c0.104,0,0.204,0.03,0.299,0.091c0.095,0.061,0.169,0.182,0.221,0.364c0.052,0.182,0.1,0.429,0.143,0.74
			C171.284,32.105,171.306,32.504,171.306,32.988z"/>
		<path d="M211.489,23.456c0,1.974-0.26,3.775-0.779,5.403c-0.52,1.628-1.308,3.03-2.364,4.208
			c-1.057,1.178-2.381,2.087-3.975,2.727c-1.593,0.641-3.455,0.961-5.584,0.961c-2.061,0-3.853-0.286-5.377-0.857
			s-2.788-1.402-3.792-2.494c-1.005-1.091-1.75-2.433-2.234-4.026c-0.485-1.593-0.728-3.411-0.728-5.455
			c0-1.974,0.264-3.779,0.792-5.416c0.528-1.637,1.32-3.039,2.376-4.208s2.377-2.074,3.961-2.714s3.441-0.961,5.571-0.961
			c2.078,0,3.879,0.281,5.403,0.844c1.524,0.563,2.784,1.39,3.78,2.481c0.995,1.091,1.736,2.433,2.221,4.026
			C211.246,19.568,211.489,21.395,211.489,23.456z M204.761,23.715c0-1.143-0.091-2.195-0.272-3.156
			c-0.182-0.961-0.49-1.796-0.922-2.506c-0.433-0.71-1.009-1.264-1.727-1.663c-0.719-0.398-1.624-0.597-2.714-0.597
			c-0.97,0-1.818,0.178-2.546,0.532c-0.727,0.355-1.325,0.875-1.792,1.559c-0.468,0.685-0.818,1.506-1.052,2.468
			c-0.233,0.961-0.351,2.057-0.351,3.286c0,1.143,0.095,2.195,0.286,3.156c0.19,0.961,0.498,1.796,0.922,2.506
			c0.424,0.71,1,1.26,1.727,1.649c0.728,0.39,1.627,0.584,2.702,0.584c0.987,0,1.844-0.177,2.571-0.533
			c0.728-0.354,1.325-0.87,1.792-1.545s0.813-1.494,1.039-2.455C204.648,26.04,204.761,24.945,204.761,23.715z"/>
		<path d="M238.633,35.274c0,0.173-0.043,0.325-0.13,0.455c-0.087,0.13-0.238,0.238-0.455,0.325
			c-0.217,0.087-0.502,0.151-0.857,0.195c-0.355,0.043-0.801,0.065-1.338,0.065c-0.571,0-1.035-0.022-1.39-0.065
			c-0.355-0.043-0.636-0.108-0.844-0.195c-0.208-0.086-0.355-0.195-0.441-0.325c-0.087-0.13-0.13-0.281-0.13-0.455v-2.675
			c-1.282,1.386-2.584,2.425-3.909,3.117s-2.698,1.039-4.117,1.039c-1.593,0-2.931-0.26-4.013-0.779
			c-1.083-0.52-1.957-1.229-2.624-2.13s-1.143-1.944-1.429-3.13c-0.286-1.186-0.428-2.662-0.428-4.429V12.104
			c0-0.173,0.047-0.325,0.143-0.455s0.269-0.238,0.52-0.325c0.251-0.086,0.588-0.151,1.013-0.195
			c0.424-0.043,0.948-0.065,1.571-0.065c0.641,0,1.169,0.022,1.584,0.065c0.416,0.043,0.749,0.108,1,0.195
			c0.251,0.087,0.429,0.195,0.533,0.325s0.156,0.282,0.156,0.455v13.091c0,1.212,0.078,2.139,0.234,2.779
			c0.156,0.641,0.394,1.191,0.714,1.649c0.32,0.459,0.727,0.814,1.221,1.065c0.494,0.251,1.069,0.377,1.728,0.377
			c0.831,0,1.666-0.303,2.506-0.909c0.84-0.606,1.736-1.489,2.688-2.649V12.104c0-0.173,0.047-0.325,0.143-0.455
			c0.095-0.13,0.268-0.238,0.52-0.325c0.25-0.086,0.584-0.151,1-0.195c0.416-0.043,0.943-0.065,1.584-0.065
			c0.64,0,1.168,0.022,1.584,0.065c0.416,0.043,0.744,0.108,0.987,0.195c0.242,0.087,0.416,0.195,0.52,0.325
			s0.156,0.282,0.156,0.455V35.274z"/>
		<path d="M258.919,32.988c0,0.762-0.048,1.347-0.143,1.753c-0.095,0.407-0.221,0.693-0.376,0.857
			c-0.156,0.165-0.386,0.312-0.688,0.442c-0.303,0.13-0.658,0.242-1.065,0.337s-0.849,0.169-1.325,0.221
			c-0.477,0.052-0.957,0.078-1.441,0.078c-1.299,0-2.425-0.165-3.377-0.494c-0.953-0.329-1.74-0.835-2.364-1.52
			c-0.623-0.684-1.083-1.545-1.376-2.584c-0.295-1.039-0.441-2.268-0.441-3.688V16.52h-2.78c-0.329,0-0.58-0.203-0.753-0.61
			c-0.173-0.407-0.26-1.086-0.26-2.039c0-0.502,0.021-0.926,0.065-1.273c0.043-0.346,0.108-0.619,0.195-0.818
			c0.086-0.199,0.195-0.342,0.325-0.429c0.13-0.086,0.281-0.13,0.455-0.13h2.753V6.052c0-0.173,0.047-0.329,0.143-0.468
			c0.095-0.138,0.268-0.255,0.52-0.351c0.251-0.095,0.588-0.165,1.013-0.208c0.424-0.043,0.948-0.065,1.571-0.065
			c0.641,0,1.173,0.022,1.598,0.065c0.424,0.043,0.757,0.113,1,0.208c0.242,0.095,0.416,0.212,0.52,0.351
			c0.104,0.139,0.156,0.295,0.156,0.468v5.169h5.039c0.173,0,0.325,0.043,0.455,0.13c0.13,0.087,0.238,0.23,0.325,0.429
			c0.086,0.199,0.151,0.472,0.195,0.818c0.043,0.347,0.065,0.771,0.065,1.273c0,0.953-0.087,1.632-0.26,2.039
			c-0.173,0.407-0.424,0.61-0.753,0.61h-5.065v10.884c0,1.264,0.199,2.212,0.597,2.844c0.398,0.632,1.108,0.948,2.13,0.948
			c0.346,0,0.658-0.03,0.935-0.091c0.277-0.06,0.523-0.13,0.74-0.208c0.216-0.078,0.398-0.147,0.545-0.208
			c0.147-0.061,0.281-0.091,0.403-0.091c0.104,0,0.203,0.03,0.298,0.091c0.095,0.061,0.169,0.182,0.221,0.364
			c0.052,0.182,0.1,0.429,0.143,0.74C258.897,32.105,258.919,32.504,258.919,32.988z"/>
		<path d="M273.673,32.754c0,0.71-0.057,1.308-0.169,1.792c-0.113,0.485-0.312,0.875-0.597,1.169
			c-0.286,0.294-0.663,0.506-1.13,0.636c-0.468,0.13-1.057,0.195-1.767,0.195c-0.71,0-1.303-0.065-1.779-0.195
			c-0.477-0.13-0.853-0.342-1.13-0.636c-0.277-0.294-0.472-0.684-0.584-1.169c-0.113-0.484-0.169-1.082-0.169-1.792
			c0-0.727,0.056-1.337,0.169-1.831c0.112-0.494,0.307-0.892,0.584-1.195c0.277-0.303,0.653-0.52,1.13-0.649
			c0.476-0.13,1.069-0.195,1.779-0.195c0.71,0,1.299,0.065,1.767,0.195c0.467,0.13,0.844,0.347,1.13,0.649
			c0.286,0.303,0.484,0.701,0.597,1.195C273.617,31.417,273.673,32.027,273.673,32.754z M272.868,25.144
			c-0.018,0.173-0.069,0.329-0.156,0.467c-0.087,0.139-0.238,0.256-0.455,0.351c-0.217,0.096-0.511,0.169-0.883,0.221
			c-0.373,0.052-0.827,0.078-1.364,0.078c-0.554,0-1.013-0.026-1.376-0.078c-0.364-0.052-0.654-0.125-0.87-0.221
			c-0.217-0.095-0.368-0.212-0.455-0.351c-0.087-0.138-0.139-0.294-0.156-0.467l-0.675-23.585c0-0.225,0.052-0.424,0.156-0.598
			c0.104-0.173,0.29-0.315,0.558-0.429c0.269-0.112,0.632-0.194,1.091-0.247c0.458-0.052,1.034-0.078,1.727-0.078
			c0.692,0,1.264,0.03,1.714,0.091c0.45,0.061,0.809,0.147,1.078,0.26c0.268,0.113,0.458,0.251,0.571,0.416
			c0.112,0.165,0.169,0.359,0.169,0.584L272.868,25.144z"/>
		<path d="M22.053,89.188c0,0.139-0.035,0.255-0.104,0.351c-0.069,0.095-0.182,0.177-0.337,0.247
			c-0.156,0.069-0.373,0.121-0.649,0.156c-0.277,0.034-0.624,0.052-1.039,0.052c-0.433,0-0.788-0.018-1.065-0.052
			c-0.277-0.035-0.494-0.087-0.649-0.156c-0.156-0.069-0.269-0.152-0.338-0.247c-0.069-0.096-0.104-0.212-0.104-0.351V75.5
			c0-1.333-0.104-2.407-0.312-3.221c-0.208-0.814-0.511-1.515-0.909-2.104c-0.398-0.588-0.914-1.039-1.545-1.351
			c-0.632-0.312-1.364-0.468-2.195-0.468c-1.074,0-2.147,0.381-3.221,1.143c-1.074,0.762-2.2,1.879-3.377,3.351v16.338
			c0,0.139-0.035,0.255-0.104,0.351c-0.069,0.095-0.182,0.177-0.337,0.247c-0.156,0.069-0.373,0.121-0.649,0.156
			c-0.277,0.034-0.632,0.052-1.065,0.052c-0.416,0-0.762-0.018-1.039-0.052c-0.277-0.035-0.498-0.087-0.663-0.156
			c-0.165-0.069-0.277-0.152-0.337-0.247c-0.061-0.096-0.091-0.212-0.091-0.351V54.486c0-0.139,0.03-0.26,0.091-0.364
			c0.06-0.104,0.173-0.19,0.337-0.26c0.165-0.069,0.385-0.121,0.663-0.156c0.277-0.035,0.624-0.052,1.039-0.052
			c0.433,0,0.788,0.018,1.065,0.052c0.276,0.035,0.493,0.087,0.649,0.156c0.156,0.069,0.268,0.156,0.337,0.26
			c0.069,0.104,0.104,0.225,0.104,0.364v14c1.229-1.299,2.468-2.264,3.714-2.896c1.247-0.632,2.502-0.948,3.767-0.948
			c1.559,0,2.87,0.264,3.935,0.792c1.065,0.529,1.926,1.234,2.584,2.117c0.658,0.883,1.13,1.918,1.416,3.104
			c0.286,1.187,0.429,2.62,0.429,4.299V89.188z"/>
		<path d="M57.431,87.474c0,0.502-0.035,0.896-0.104,1.182c-0.07,0.285-0.178,0.498-0.325,0.636
			c-0.147,0.139-0.351,0.269-0.611,0.39s-0.567,0.225-0.922,0.312c-0.355,0.086-0.736,0.156-1.143,0.208
			c-0.407,0.052-0.801,0.078-1.182,0.078c-1.23,0-2.277-0.16-3.143-0.48c-0.866-0.321-1.571-0.806-2.117-1.455
			c-0.545-0.65-0.948-1.472-1.208-2.468c-0.26-0.996-0.39-2.169-0.39-3.52V68.694H34.677v13.039c0,1.611,0.238,2.827,0.714,3.65
			c0.476,0.823,1.329,1.233,2.559,1.233c0.398,0,0.753-0.039,1.065-0.117c0.312-0.078,0.588-0.16,0.831-0.247
			c0.242-0.086,0.45-0.169,0.624-0.247c0.173-0.079,0.329-0.117,0.467-0.117c0.086,0,0.169,0.021,0.247,0.065
			c0.078,0.043,0.138,0.126,0.182,0.247c0.043,0.122,0.082,0.286,0.117,0.494c0.034,0.208,0.052,0.468,0.052,0.779
			c0,0.294-0.009,0.528-0.026,0.701c-0.018,0.173-0.039,0.333-0.065,0.481c-0.026,0.147-0.069,0.277-0.13,0.389
			c-0.061,0.113-0.156,0.225-0.286,0.338s-0.324,0.225-0.584,0.337c-0.26,0.113-0.563,0.208-0.909,0.286
			c-0.347,0.078-0.719,0.143-1.117,0.195c-0.398,0.052-0.797,0.078-1.195,0.078c-1.212,0-2.251-0.16-3.117-0.48
			c-0.866-0.321-1.576-0.806-2.13-1.455c-0.554-0.65-0.957-1.472-1.208-2.468c-0.251-0.996-0.377-2.169-0.377-3.52V68.694h-3.272
			c-0.26,0-0.468-0.139-0.624-0.416c-0.156-0.276-0.234-0.727-0.234-1.351c0-0.329,0.021-0.606,0.065-0.831
			c0.043-0.225,0.1-0.411,0.169-0.559c0.069-0.147,0.16-0.251,0.272-0.312s0.238-0.091,0.377-0.091h3.247v-5.559
			c0-0.121,0.03-0.233,0.091-0.337c0.06-0.104,0.173-0.195,0.337-0.273c0.165-0.078,0.385-0.134,0.663-0.168
			c0.276-0.035,0.623-0.052,1.039-0.052c0.433,0,0.788,0.018,1.065,0.052c0.276,0.035,0.493,0.091,0.649,0.168
			c0.156,0.078,0.268,0.169,0.337,0.273c0.069,0.104,0.104,0.217,0.104,0.337v5.559h11.611V58.46c0-0.138,0.035-0.26,0.104-0.364
			c0.069-0.104,0.186-0.186,0.351-0.247c0.164-0.061,0.385-0.112,0.662-0.156c0.277-0.043,0.624-0.065,1.039-0.065
			s0.762,0.022,1.039,0.065c0.277,0.043,0.498,0.095,0.663,0.156c0.164,0.061,0.281,0.143,0.351,0.247
			C50.564,58.2,50.6,58.322,50.6,58.46v6.676h5.974c0.138,0,0.26,0.03,0.364,0.091c0.104,0.061,0.195,0.165,0.272,0.312
			c0.078,0.147,0.134,0.334,0.169,0.559c0.035,0.225,0.052,0.502,0.052,0.831c0,0.624-0.078,1.074-0.233,1.351
			c-0.156,0.277-0.355,0.416-0.598,0.416h-6v13.039c0,1.611,0.233,2.827,0.701,3.65c0.467,0.823,1.316,1.233,2.545,1.233
			c0.381,0,0.731-0.039,1.052-0.117c0.32-0.078,0.601-0.16,0.844-0.247c0.242-0.086,0.455-0.169,0.636-0.247
			c0.182-0.079,0.333-0.117,0.455-0.117c0.104,0,0.19,0.021,0.26,0.065c0.069,0.043,0.125,0.126,0.169,0.247
			c0.043,0.122,0.082,0.286,0.117,0.494C57.414,86.903,57.431,87.163,57.431,87.474z"/>
		<path d="M84.627,77.136c0,2.043-0.221,3.879-0.663,5.506c-0.441,1.628-1.091,3.009-1.948,4.144
			c-0.857,1.134-1.918,2.008-3.182,2.623c-1.265,0.615-2.71,0.922-4.338,0.922c-0.693,0-1.334-0.07-1.922-0.208
			c-0.589-0.139-1.165-0.354-1.727-0.649c-0.563-0.294-1.122-0.667-1.676-1.117s-1.143-0.978-1.766-1.584v11.688
			c0,0.139-0.035,0.26-0.104,0.364c-0.069,0.104-0.182,0.19-0.337,0.26c-0.156,0.069-0.373,0.121-0.649,0.156
			c-0.277,0.035-0.632,0.052-1.065,0.052c-0.416,0-0.762-0.018-1.039-0.052c-0.277-0.035-0.498-0.087-0.663-0.156
			c-0.165-0.069-0.277-0.156-0.337-0.26c-0.061-0.104-0.091-0.225-0.091-0.364v-32.65c0-0.156,0.026-0.281,0.078-0.377
			c0.052-0.095,0.156-0.177,0.312-0.247c0.156-0.069,0.355-0.117,0.598-0.143c0.242-0.026,0.537-0.039,0.883-0.039
			c0.363,0,0.662,0.013,0.896,0.039c0.234,0.026,0.429,0.074,0.584,0.143c0.156,0.069,0.264,0.152,0.325,0.247
			c0.061,0.096,0.091,0.221,0.091,0.377v3.143c0.71-0.728,1.394-1.359,2.052-1.896c0.658-0.537,1.32-0.982,1.987-1.338
			c0.667-0.354,1.351-0.623,2.052-0.805c0.701-0.182,1.441-0.272,2.221-0.272c1.697,0,3.143,0.329,4.338,0.987
			c1.195,0.659,2.169,1.559,2.922,2.702c0.753,1.143,1.303,2.472,1.649,3.987C84.454,73.833,84.627,75.439,84.627,77.136z
			 M80.185,77.629c0-1.195-0.092-2.351-0.274-3.467c-0.183-1.117-0.497-2.108-0.941-2.975c-0.444-0.865-1.041-1.558-1.79-2.078
			s-1.682-0.779-2.796-0.779c-0.558,0-1.107,0.083-1.646,0.247c-0.541,0.165-1.089,0.425-1.646,0.779
			c-0.558,0.355-1.142,0.822-1.751,1.402c-0.61,0.581-1.255,1.295-1.934,2.143v9.299c1.185,1.438,2.309,2.537,3.372,3.299
			c1.063,0.762,2.178,1.143,3.345,1.143c1.08,0,2.007-0.26,2.783-0.779s1.403-1.212,1.882-2.078
			c0.479-0.866,0.832-1.835,1.059-2.909S80.185,78.721,80.185,77.629z"/>
		<path d="M97.406,69.058c0,0.555-0.039,1.022-0.117,1.403c-0.078,0.381-0.225,0.688-0.441,0.922
			c-0.217,0.234-0.498,0.398-0.844,0.494c-0.347,0.095-0.788,0.143-1.325,0.143c-0.555,0-1.004-0.047-1.351-0.143
			c-0.347-0.096-0.624-0.26-0.832-0.494c-0.208-0.233-0.351-0.541-0.429-0.922c-0.078-0.381-0.117-0.848-0.117-1.403
			c0-0.588,0.039-1.078,0.117-1.467c0.078-0.39,0.221-0.702,0.429-0.935c0.208-0.234,0.485-0.398,0.832-0.494
			c0.346-0.095,0.796-0.143,1.351-0.143c0.537,0,0.978,0.048,1.325,0.143c0.346,0.095,0.627,0.26,0.844,0.494
			c0.216,0.233,0.364,0.545,0.441,0.935C97.368,67.98,97.406,68.469,97.406,69.058z M97.406,87.084c0,0.571-0.039,1.048-0.117,1.429
			c-0.078,0.381-0.225,0.688-0.441,0.922c-0.217,0.233-0.498,0.398-0.844,0.493c-0.347,0.095-0.788,0.143-1.325,0.143
			c-0.555,0-1.004-0.048-1.351-0.143c-0.347-0.095-0.624-0.26-0.832-0.493c-0.208-0.234-0.351-0.542-0.429-0.922
			c-0.078-0.381-0.117-0.857-0.117-1.429s0.039-1.052,0.117-1.441c0.078-0.39,0.221-0.697,0.429-0.922
			c0.208-0.225,0.485-0.39,0.832-0.494c0.346-0.104,0.796-0.156,1.351-0.156c0.537,0,0.978,0.052,1.325,0.156
			c0.346,0.104,0.627,0.269,0.844,0.494c0.216,0.225,0.364,0.532,0.441,0.922C97.368,86.032,97.406,86.513,97.406,87.084z"/>
		<path d="M105.692,96.098c-0.069,0.225-0.16,0.403-0.272,0.532c-0.113,0.13-0.256,0.229-0.429,0.299
			c-0.173,0.069-0.386,0.121-0.636,0.156c-0.251,0.034-0.559,0.052-0.922,0.052c-0.433,0-0.792-0.03-1.078-0.091
			c-0.286-0.061-0.506-0.147-0.662-0.26s-0.251-0.251-0.286-0.416c-0.035-0.164,0-0.359,0.104-0.584l15.715-43.093
			c0.069-0.225,0.16-0.402,0.272-0.532c0.112-0.13,0.251-0.234,0.416-0.312c0.165-0.078,0.377-0.13,0.637-0.156
			s0.571-0.039,0.935-0.039c0.433,0,0.788,0.031,1.065,0.091c0.277,0.061,0.494,0.143,0.649,0.247s0.25,0.243,0.286,0.416
			c0.035,0.173,0.008,0.373-0.078,0.598L105.692,96.098z"/>
		<path d="M126.239,96.098c-0.069,0.225-0.16,0.403-0.273,0.532c-0.113,0.13-0.255,0.229-0.428,0.299
			c-0.173,0.069-0.386,0.121-0.637,0.156c-0.251,0.034-0.558,0.052-0.922,0.052c-0.433,0-0.792-0.03-1.078-0.091
			s-0.506-0.147-0.662-0.26s-0.251-0.251-0.286-0.416c-0.035-0.164,0-0.359,0.104-0.584l15.715-43.093
			c0.069-0.225,0.16-0.402,0.273-0.532c0.112-0.13,0.251-0.234,0.416-0.312c0.165-0.078,0.377-0.13,0.637-0.156
			s0.571-0.039,0.935-0.039c0.433,0,0.788,0.031,1.065,0.091c0.276,0.061,0.493,0.143,0.649,0.247
			c0.156,0.104,0.25,0.243,0.286,0.416c0.034,0.173,0.008,0.373-0.078,0.598L126.239,96.098z"/>
		<path d="M162.24,85.63c0,0.295-0.009,0.55-0.026,0.766c-0.018,0.217-0.048,0.398-0.091,0.546
			c-0.043,0.147-0.096,0.277-0.156,0.389c-0.061,0.113-0.199,0.278-0.416,0.494c-0.217,0.216-0.584,0.484-1.104,0.805
			c-0.519,0.32-1.104,0.606-1.753,0.857s-1.355,0.455-2.117,0.61c-0.762,0.156-1.55,0.234-2.364,0.234
			c-1.68,0-3.169-0.277-4.468-0.832c-1.299-0.554-2.386-1.363-3.26-2.429c-0.875-1.064-1.542-2.372-2-3.922
			c-0.459-1.55-0.688-3.338-0.688-5.364c0-2.303,0.281-4.281,0.844-5.936c0.563-1.653,1.333-3.008,2.312-4.064
			c0.978-1.056,2.13-1.84,3.455-2.351c1.325-0.51,2.757-0.766,4.299-0.766c0.744,0,1.468,0.069,2.169,0.208s1.346,0.32,1.935,0.545
			c0.588,0.225,1.112,0.485,1.571,0.779s0.792,0.545,1,0.753c0.208,0.208,0.351,0.373,0.428,0.494
			c0.078,0.122,0.143,0.264,0.195,0.429c0.052,0.165,0.086,0.351,0.104,0.559c0.017,0.208,0.026,0.467,0.026,0.779
			c0,0.675-0.078,1.147-0.234,1.416c-0.156,0.269-0.346,0.402-0.571,0.402c-0.26,0-0.559-0.143-0.896-0.429
			c-0.338-0.285-0.766-0.601-1.286-0.948c-0.52-0.346-1.147-0.663-1.883-0.948c-0.736-0.286-1.606-0.429-2.61-0.429
			c-2.061,0-3.641,0.792-4.741,2.376c-1.1,1.585-1.649,3.884-1.649,6.897c0,1.506,0.143,2.827,0.429,3.961
			c0.286,1.134,0.705,2.083,1.26,2.844c0.554,0.762,1.234,1.33,2.039,1.702s1.727,0.558,2.766,0.558
			c0.987,0,1.853-0.156,2.598-0.467c0.744-0.312,1.39-0.654,1.935-1.026s1.004-0.71,1.377-1.014c0.372-0.302,0.662-0.454,0.87-0.454
			c0.121,0,0.225,0.035,0.312,0.104c0.086,0.069,0.16,0.186,0.221,0.35c0.061,0.166,0.104,0.374,0.13,0.624
			C162.227,84.985,162.24,85.284,162.24,85.63z"/>
		<path d="M172.215,89.188c0,0.139-0.035,0.255-0.104,0.351c-0.069,0.095-0.182,0.177-0.338,0.247
			c-0.156,0.069-0.373,0.121-0.649,0.156c-0.277,0.034-0.632,0.052-1.065,0.052c-0.416,0-0.762-0.018-1.039-0.052
			c-0.277-0.035-0.498-0.087-0.662-0.156c-0.165-0.069-0.277-0.152-0.338-0.247c-0.061-0.096-0.091-0.212-0.091-0.351V54.486
			c0-0.139,0.03-0.26,0.091-0.364s0.173-0.19,0.338-0.26c0.164-0.069,0.385-0.121,0.662-0.156s0.624-0.052,1.039-0.052
			c0.433,0,0.788,0.018,1.065,0.052s0.494,0.087,0.649,0.156c0.156,0.069,0.269,0.156,0.338,0.26
			c0.069,0.104,0.104,0.225,0.104,0.364V89.188z"/>
		<path d="M201.878,77.24c0,1.905-0.251,3.659-0.753,5.26c-0.502,1.602-1.251,2.983-2.247,4.144c-0.996,1.16-2.243,2.065-3.74,2.714
			c-1.498,0.65-3.234,0.975-5.208,0.975c-1.922,0-3.598-0.286-5.026-0.857c-1.428-0.571-2.619-1.403-3.571-2.494
			c-0.953-1.091-1.663-2.416-2.13-3.974c-0.468-1.559-0.702-3.325-0.702-5.299c0-1.905,0.247-3.658,0.74-5.26
			c0.494-1.602,1.238-2.983,2.234-4.143c0.996-1.16,2.238-2.061,3.728-2.702c1.489-0.64,3.229-0.961,5.221-0.961
			c1.922,0,3.597,0.286,5.026,0.857c1.429,0.572,2.619,1.403,3.572,2.494c0.952,1.091,1.667,2.416,2.143,3.974
			C201.64,73.525,201.878,75.283,201.878,77.24z M197.437,77.525c0-1.264-0.118-2.458-0.354-3.584
			c-0.236-1.125-0.625-2.112-1.167-2.961c-0.542-0.848-1.275-1.52-2.202-2.013s-2.079-0.74-3.459-0.74
			c-1.276,0-2.372,0.225-3.29,0.675c-0.917,0.451-1.673,1.087-2.267,1.909c-0.594,0.823-1.035,1.797-1.324,2.922
			c-0.288,1.126-0.432,2.355-0.432,3.688c0,1.282,0.118,2.485,0.354,3.61c0.236,1.126,0.629,2.109,1.179,2.948
			c0.55,0.84,1.289,1.507,2.214,2c0.926,0.494,2.08,0.74,3.46,0.74c1.258,0,2.35-0.225,3.276-0.675
			c0.926-0.45,1.686-1.082,2.28-1.896c0.594-0.814,1.031-1.783,1.311-2.909C197.296,80.115,197.437,78.876,197.437,77.525z"/>
		<path d="M228.217,89.188c0,0.139-0.03,0.255-0.091,0.351c-0.061,0.095-0.169,0.177-0.325,0.247
			c-0.156,0.069-0.359,0.121-0.61,0.156c-0.251,0.034-0.559,0.052-0.922,0.052c-0.398,0-0.723-0.018-0.974-0.052
			c-0.251-0.035-0.451-0.087-0.598-0.156c-0.147-0.069-0.247-0.152-0.299-0.247c-0.052-0.096-0.078-0.212-0.078-0.351v-3.091
			c-1.334,1.472-2.649,2.545-3.948,3.221s-2.615,1.013-3.948,1.013c-1.559,0-2.87-0.26-3.935-0.779
			c-1.065-0.52-1.927-1.225-2.585-2.117c-0.658-0.892-1.13-1.931-1.416-3.117c-0.286-1.186-0.429-2.627-0.429-4.325V65.811
			c0-0.139,0.03-0.255,0.091-0.351c0.06-0.095,0.177-0.182,0.351-0.259c0.173-0.078,0.398-0.13,0.675-0.156
			c0.277-0.026,0.624-0.039,1.039-0.039s0.762,0.013,1.039,0.039c0.276,0.026,0.498,0.078,0.662,0.156
			c0.165,0.078,0.281,0.165,0.351,0.259c0.069,0.096,0.104,0.212,0.104,0.351v13.611c0,1.368,0.1,2.464,0.299,3.286
			c0.199,0.823,0.502,1.524,0.909,2.104c0.407,0.58,0.922,1.03,1.545,1.351s1.351,0.48,2.182,0.48c1.073,0,2.143-0.381,3.208-1.143
			c1.065-0.762,2.195-1.879,3.39-3.351V65.811c0-0.139,0.03-0.255,0.091-0.351c0.061-0.095,0.177-0.182,0.351-0.259
			c0.173-0.078,0.394-0.13,0.662-0.156c0.269-0.026,0.619-0.039,1.052-0.039c0.416,0,0.762,0.013,1.039,0.039
			c0.277,0.026,0.494,0.078,0.649,0.156c0.156,0.078,0.272,0.165,0.351,0.259c0.078,0.096,0.117,0.212,0.117,0.351V89.188z"/>
		<path d="M256.166,89.188c0,0.139-0.03,0.26-0.091,0.364c-0.061,0.104-0.165,0.186-0.312,0.247
			c-0.147,0.06-0.342,0.107-0.584,0.143c-0.243,0.034-0.537,0.052-0.883,0.052c-0.364,0-0.667-0.018-0.909-0.052
			c-0.243-0.035-0.441-0.083-0.597-0.143c-0.156-0.061-0.269-0.143-0.338-0.247c-0.069-0.104-0.104-0.225-0.104-0.364v-3.091
			c-1.229,1.333-2.506,2.373-3.831,3.117c-1.325,0.745-2.775,1.117-4.351,1.117c-1.714,0-3.178-0.333-4.39-1
			c-1.212-0.667-2.195-1.567-2.948-2.701c-0.753-1.135-1.303-2.468-1.649-4c-0.347-1.533-0.52-3.147-0.52-4.845
			c0-2.008,0.216-3.822,0.649-5.441c0.433-1.619,1.074-3,1.922-4.143c0.848-1.143,1.9-2.021,3.156-2.637
			c1.255-0.614,2.706-0.922,4.351-0.922c1.368,0,2.619,0.299,3.753,0.896c1.134,0.598,2.255,1.477,3.364,2.637V54.59
			c0-0.121,0.03-0.238,0.091-0.351c0.06-0.112,0.177-0.199,0.351-0.259c0.173-0.061,0.394-0.113,0.662-0.156
			c0.269-0.043,0.61-0.065,1.026-0.065c0.433,0,0.788,0.022,1.065,0.065c0.277,0.043,0.493,0.096,0.649,0.156
			c0.156,0.061,0.272,0.147,0.351,0.259c0.078,0.113,0.117,0.23,0.117,0.351V89.188z M251.854,72.746
			c-1.16-1.437-2.282-2.532-3.364-3.286s-2.212-1.13-3.39-1.13c-1.091,0-2.018,0.26-2.779,0.779
			c-0.762,0.52-1.381,1.204-1.857,2.052c-0.477,0.849-0.823,1.81-1.039,2.883c-0.217,1.074-0.325,2.165-0.325,3.273
			c0,1.178,0.091,2.329,0.272,3.455c0.182,1.126,0.498,2.126,0.948,3c0.45,0.875,1.047,1.576,1.792,2.104
			c0.744,0.529,1.679,0.792,2.805,0.792c0.571,0,1.121-0.078,1.649-0.234c0.528-0.156,1.069-0.416,1.624-0.779
			c0.554-0.364,1.134-0.835,1.74-1.416c0.606-0.58,1.247-1.294,1.922-2.143V72.746z"/>
		<path d="M280.895,85.63c0,0.295-0.009,0.55-0.026,0.766c-0.017,0.217-0.047,0.398-0.091,0.546
			c-0.043,0.147-0.095,0.277-0.156,0.389c-0.061,0.113-0.199,0.278-0.416,0.494c-0.216,0.216-0.584,0.484-1.104,0.805
			s-1.104,0.606-1.753,0.857c-0.649,0.251-1.355,0.455-2.117,0.61c-0.762,0.156-1.55,0.234-2.364,0.234
			c-1.68,0-3.169-0.277-4.468-0.832c-1.299-0.554-2.386-1.363-3.26-2.429c-0.875-1.064-1.542-2.372-2-3.922
			c-0.459-1.55-0.688-3.338-0.688-5.364c0-2.303,0.281-4.281,0.844-5.936c0.563-1.653,1.333-3.008,2.312-4.064
			c0.978-1.056,2.13-1.84,3.455-2.351c1.325-0.51,2.758-0.766,4.299-0.766c0.744,0,1.468,0.069,2.168,0.208
			c0.702,0.139,1.347,0.32,1.936,0.545c0.588,0.225,1.112,0.485,1.572,0.779c0.458,0.294,0.792,0.545,1,0.753
			c0.208,0.208,0.351,0.373,0.428,0.494c0.079,0.122,0.143,0.264,0.195,0.429c0.052,0.165,0.086,0.351,0.104,0.559
			c0.017,0.208,0.026,0.467,0.026,0.779c0,0.675-0.078,1.147-0.234,1.416c-0.156,0.269-0.347,0.402-0.571,0.402
			c-0.26,0-0.559-0.143-0.896-0.429c-0.338-0.285-0.767-0.601-1.286-0.948c-0.52-0.346-1.147-0.663-1.883-0.948
			c-0.736-0.286-1.607-0.429-2.611-0.429c-2.061,0-3.641,0.792-4.74,2.376c-1.1,1.585-1.649,3.884-1.649,6.897
			c0,1.506,0.143,2.827,0.428,3.961c0.286,1.134,0.706,2.083,1.26,2.844c0.554,0.762,1.233,1.33,2.039,1.702
			c0.806,0.372,1.728,0.558,2.767,0.558c0.987,0,1.853-0.156,2.598-0.467c0.744-0.312,1.389-0.654,1.935-1.026
			c0.545-0.372,1.004-0.71,1.376-1.014c0.373-0.302,0.663-0.454,0.87-0.454c0.121,0,0.225,0.035,0.312,0.104
			c0.086,0.069,0.16,0.186,0.22,0.35c0.061,0.166,0.104,0.374,0.13,0.624C280.881,84.985,280.895,85.284,280.895,85.63z"/>
		<path d="M307.882,77.24c0,1.905-0.251,3.659-0.753,5.26c-0.503,1.602-1.251,2.983-2.247,4.144
			c-0.996,1.16-2.243,2.065-3.741,2.714c-1.498,0.65-3.234,0.975-5.208,0.975c-1.922,0-3.598-0.286-5.026-0.857
			c-1.429-0.571-2.62-1.403-3.572-2.494s-1.662-2.416-2.13-3.974c-0.467-1.559-0.701-3.325-0.701-5.299
			c0-1.905,0.247-3.658,0.741-5.26c0.493-1.602,1.238-2.983,2.234-4.143c0.995-1.16,2.237-2.061,3.727-2.702
			c1.489-0.64,3.229-0.961,5.221-0.961c1.922,0,3.598,0.286,5.027,0.857c1.428,0.572,2.619,1.403,3.571,2.494
			c0.952,1.091,1.667,2.416,2.143,3.974C307.645,73.525,307.882,75.283,307.882,77.24z M303.441,77.525
			c0-1.264-0.118-2.458-0.354-3.584c-0.236-1.125-0.625-2.112-1.167-2.961c-0.542-0.848-1.275-1.52-2.202-2.013
			s-2.08-0.74-3.46-0.74c-1.275,0-2.372,0.225-3.29,0.675c-0.917,0.451-1.672,1.087-2.267,1.909
			c-0.594,0.823-1.036,1.797-1.324,2.922c-0.288,1.126-0.432,2.355-0.432,3.688c0,1.282,0.118,2.485,0.354,3.61
			c0.236,1.126,0.629,2.109,1.18,2.948c0.55,0.84,1.288,1.507,2.214,2c0.926,0.494,2.079,0.74,3.46,0.74
			c1.258,0,2.35-0.225,3.276-0.675c0.926-0.45,1.686-1.082,2.28-1.896s1.031-1.783,1.311-2.909
			C303.301,80.115,303.441,78.876,303.441,77.525z"/>
		<path d="M334.221,89.188c0,0.139-0.03,0.26-0.091,0.364c-0.061,0.104-0.165,0.186-0.312,0.247
			c-0.147,0.06-0.342,0.107-0.584,0.143c-0.243,0.034-0.537,0.052-0.883,0.052c-0.364,0-0.667-0.018-0.909-0.052
			c-0.243-0.035-0.441-0.083-0.598-0.143c-0.156-0.061-0.269-0.143-0.337-0.247c-0.069-0.104-0.104-0.225-0.104-0.364v-3.091
			c-1.23,1.333-2.506,2.373-3.832,3.117c-1.324,0.745-2.775,1.117-4.351,1.117c-1.714,0-3.178-0.333-4.39-1
			c-1.212-0.667-2.195-1.567-2.949-2.701c-0.752-1.135-1.303-2.468-1.649-4c-0.347-1.533-0.52-3.147-0.52-4.845
			c0-2.008,0.216-3.822,0.649-5.441c0.433-1.619,1.073-3,1.922-4.143s1.9-2.021,3.156-2.637c1.255-0.614,2.706-0.922,4.351-0.922
			c1.368,0,2.619,0.299,3.754,0.896c1.134,0.598,2.255,1.477,3.363,2.637V54.59c0-0.121,0.03-0.238,0.091-0.351
			c0.061-0.112,0.178-0.199,0.351-0.259c0.173-0.061,0.394-0.113,0.663-0.156c0.268-0.043,0.61-0.065,1.025-0.065
			c0.433,0,0.788,0.022,1.065,0.065c0.276,0.043,0.493,0.096,0.649,0.156c0.156,0.061,0.273,0.147,0.351,0.259
			c0.079,0.113,0.117,0.23,0.117,0.351V89.188z M329.909,72.746c-1.16-1.437-2.281-2.532-3.363-3.286
			c-1.083-0.753-2.213-1.13-3.39-1.13c-1.091,0-2.018,0.26-2.779,0.779c-0.762,0.52-1.381,1.204-1.857,2.052
			c-0.476,0.849-0.822,1.81-1.039,2.883c-0.216,1.074-0.324,2.165-0.324,3.273c0,1.178,0.091,2.329,0.272,3.455
			c0.182,1.126,0.498,2.126,0.948,3c0.45,0.875,1.047,1.576,1.792,2.104c0.745,0.529,1.68,0.792,2.806,0.792
			c0.571,0,1.121-0.078,1.649-0.234s1.069-0.416,1.624-0.779c0.554-0.364,1.134-0.835,1.74-1.416
			c0.606-0.58,1.247-1.294,1.922-2.143V72.746z"/>
		<path d="M362.092,76.487c0,0.675-0.169,1.156-0.509,1.441c-0.339,0.286-0.726,0.429-1.161,0.429h-15.396
			c0,1.299,0.13,2.468,0.391,3.506c0.261,1.039,0.696,1.931,1.305,2.676c0.609,0.745,1.401,1.316,2.375,1.714
			c0.975,0.398,2.167,0.597,3.576,0.597c1.114,0,2.105-0.091,2.976-0.272c0.87-0.182,1.623-0.385,2.258-0.61
			s1.157-0.429,1.566-0.611c0.41-0.181,0.718-0.272,0.927-0.272c0.122,0,0.23,0.031,0.326,0.091c0.096,0.06,0.169,0.151,0.222,0.272
			c0.052,0.121,0.091,0.29,0.118,0.506c0.026,0.216,0.039,0.48,0.039,0.792c0,0.226-0.009,0.42-0.026,0.584
			c-0.018,0.165-0.039,0.312-0.065,0.442c-0.025,0.129-0.069,0.247-0.129,0.351c-0.061,0.104-0.139,0.204-0.234,0.298
			c-0.095,0.096-0.376,0.251-0.844,0.468c-0.468,0.217-1.074,0.429-1.818,0.637c-0.745,0.208-1.606,0.394-2.584,0.558
			c-0.978,0.165-2.022,0.247-3.13,0.247c-1.922,0-3.606-0.269-5.052-0.805c-1.446-0.537-2.663-1.333-3.65-2.39
			c-0.987-1.056-1.732-2.38-2.234-3.974c-0.502-1.593-0.753-3.446-0.753-5.559c0-2.008,0.26-3.813,0.779-5.416
			s1.269-2.961,2.247-4.078c0.979-1.117,2.16-1.974,3.546-2.572c1.385-0.597,2.935-0.896,4.649-0.896
			c1.835,0,3.398,0.294,4.688,0.883s2.351,1.381,3.182,2.376c0.831,0.996,1.441,2.165,1.832,3.507
			c0.389,1.342,0.584,2.775,0.584,4.299V76.487z M357.781,75.214c0.052-2.251-0.449-4.017-1.503-5.299
			c-1.054-1.281-2.618-1.922-4.691-1.922c-1.063,0-1.996,0.199-2.796,0.598c-0.802,0.398-1.473,0.926-2.013,1.584
			c-0.54,0.658-0.958,1.425-1.254,2.298c-0.296,0.875-0.461,1.789-0.496,2.741H357.781z"/>
		<path d="M382.275,67.343c0,0.381-0.009,0.702-0.026,0.961c-0.018,0.26-0.052,0.463-0.104,0.61
			c-0.052,0.147-0.117,0.26-0.194,0.337c-0.079,0.078-0.187,0.117-0.325,0.117s-0.307-0.039-0.506-0.117
			c-0.2-0.078-0.425-0.156-0.676-0.234c-0.251-0.078-0.533-0.151-0.844-0.221c-0.312-0.069-0.649-0.104-1.013-0.104
			c-0.433,0-0.857,0.087-1.272,0.26s-0.853,0.459-1.312,0.857c-0.458,0.398-0.939,0.927-1.441,1.584
			c-0.502,0.658-1.057,1.463-1.663,2.416v15.377c0,0.139-0.035,0.255-0.104,0.351c-0.069,0.095-0.182,0.177-0.337,0.247
			c-0.156,0.069-0.373,0.121-0.649,0.156c-0.277,0.034-0.632,0.052-1.065,0.052c-0.416,0-0.762-0.018-1.039-0.052
			c-0.277-0.035-0.498-0.087-0.663-0.156c-0.165-0.069-0.277-0.152-0.337-0.247c-0.061-0.096-0.091-0.212-0.091-0.351V65.811
			c0-0.139,0.026-0.255,0.078-0.351c0.052-0.095,0.156-0.182,0.312-0.259c0.156-0.078,0.354-0.13,0.597-0.156
			c0.242-0.026,0.563-0.039,0.961-0.039c0.38,0,0.697,0.013,0.948,0.039c0.25,0.026,0.445,0.078,0.584,0.156
			c0.139,0.078,0.238,0.165,0.299,0.259c0.061,0.096,0.091,0.212,0.091,0.351v3.403c0.641-0.936,1.243-1.697,1.805-2.286
			c0.563-0.588,1.095-1.052,1.598-1.39c0.502-0.337,1-0.571,1.494-0.701c0.493-0.13,0.991-0.195,1.493-0.195
			c0.225,0,0.481,0.013,0.766,0.039c0.286,0.026,0.585,0.074,0.896,0.143c0.312,0.069,0.593,0.147,0.844,0.234
			c0.251,0.087,0.429,0.173,0.533,0.26c0.104,0.087,0.173,0.169,0.208,0.247c0.035,0.078,0.065,0.178,0.091,0.299
			c0.025,0.122,0.043,0.299,0.052,0.533C382.271,66.629,382.275,66.945,382.275,67.343z"/>
		<path d="M387.34,87.006c0,1.23-0.204,2.048-0.61,2.455c-0.407,0.407-1.147,0.611-2.221,0.611c-1.039,0-1.758-0.2-2.156-0.598
			c-0.398-0.398-0.598-1.195-0.598-2.39c0-1.229,0.204-2.048,0.611-2.455c0.407-0.406,1.146-0.61,2.221-0.61
			c1.039,0,1.757,0.199,2.156,0.597C387.141,85.016,387.34,85.812,387.34,87.006z"/>
		<path d="M416.978,77.24c0,1.905-0.251,3.659-0.753,5.26c-0.502,1.602-1.251,2.983-2.247,4.144
			c-0.996,1.16-2.243,2.065-3.741,2.714c-1.498,0.65-3.234,0.975-5.208,0.975c-1.922,0-3.598-0.286-5.026-0.857
			c-1.429-0.571-2.62-1.403-3.572-2.494c-0.953-1.091-1.663-2.416-2.13-3.974c-0.468-1.559-0.702-3.325-0.702-5.299
			c0-1.905,0.247-3.658,0.741-5.26c0.493-1.602,1.238-2.983,2.234-4.143c0.996-1.16,2.237-2.061,3.727-2.702
			c1.489-0.64,3.229-0.961,5.221-0.961c1.922,0,3.597,0.286,5.026,0.857c1.428,0.572,2.619,1.403,3.571,2.494
			c0.952,1.091,1.667,2.416,2.143,3.974C416.74,73.525,416.978,75.283,416.978,77.24z M412.536,77.525
			c0-1.264-0.118-2.458-0.354-3.584c-0.236-1.125-0.625-2.112-1.167-2.961c-0.542-0.848-1.275-1.52-2.202-2.013
			s-2.08-0.74-3.46-0.74c-1.275,0-2.372,0.225-3.289,0.675c-0.917,0.451-1.673,1.087-2.267,1.909
			c-0.594,0.823-1.036,1.797-1.324,2.922c-0.288,1.126-0.432,2.355-0.432,3.688c0,1.282,0.118,2.485,0.354,3.61
			c0.236,1.126,0.629,2.109,1.18,2.948c0.55,0.84,1.288,1.507,2.214,2c0.926,0.494,2.079,0.74,3.46,0.74
			c1.258,0,2.349-0.225,3.276-0.675c0.926-0.45,1.686-1.082,2.28-1.896c0.595-0.814,1.031-1.783,1.311-2.909
			C412.396,80.115,412.536,78.876,412.536,77.525z"/>
		<path d="M436.953,67.343c0,0.381-0.009,0.702-0.026,0.961c-0.018,0.26-0.052,0.463-0.104,0.61
			c-0.052,0.147-0.117,0.26-0.195,0.337c-0.078,0.078-0.187,0.117-0.325,0.117c-0.139,0-0.308-0.039-0.506-0.117
			c-0.199-0.078-0.424-0.156-0.675-0.234c-0.251-0.078-0.533-0.151-0.844-0.221c-0.312-0.069-0.649-0.104-1.013-0.104
			c-0.433,0-0.857,0.087-1.273,0.26s-0.853,0.459-1.312,0.857c-0.458,0.398-0.939,0.927-1.441,1.584
			c-0.502,0.658-1.056,1.463-1.662,2.416v15.377c0,0.139-0.035,0.255-0.104,0.351c-0.069,0.095-0.182,0.177-0.338,0.247
			c-0.156,0.069-0.373,0.121-0.649,0.156c-0.277,0.034-0.632,0.052-1.065,0.052c-0.416,0-0.762-0.018-1.039-0.052
			c-0.277-0.035-0.498-0.087-0.663-0.156c-0.165-0.069-0.277-0.152-0.337-0.247c-0.061-0.096-0.091-0.212-0.091-0.351V65.811
			c0-0.139,0.026-0.255,0.078-0.351c0.052-0.095,0.156-0.182,0.312-0.259c0.156-0.078,0.355-0.13,0.598-0.156
			c0.242-0.026,0.563-0.039,0.961-0.039c0.381,0,0.697,0.013,0.948,0.039c0.251,0.026,0.445,0.078,0.584,0.156
			c0.138,0.078,0.238,0.165,0.299,0.259c0.061,0.096,0.091,0.212,0.091,0.351v3.403c0.64-0.936,1.242-1.697,1.805-2.286
			c0.563-0.588,1.095-1.052,1.598-1.39c0.502-0.337,1-0.571,1.494-0.701c0.493-0.13,0.991-0.195,1.493-0.195
			c0.225,0,0.481,0.013,0.766,0.039c0.286,0.026,0.584,0.074,0.896,0.143c0.312,0.069,0.593,0.147,0.844,0.234
			c0.251,0.087,0.428,0.173,0.532,0.26c0.104,0.087,0.173,0.169,0.208,0.247c0.034,0.078,0.064,0.178,0.091,0.299
			c0.026,0.122,0.043,0.299,0.052,0.533C436.948,66.629,436.953,66.945,436.953,67.343z"/>
		<path d="M460.642,66.876c0,0.606-0.082,1.043-0.247,1.312c-0.165,0.269-0.376,0.403-0.636,0.403h-3.351
			c0.606,0.624,1.03,1.312,1.273,2.064c0.242,0.754,0.364,1.538,0.364,2.351c0,1.351-0.217,2.546-0.649,3.584
			c-0.433,1.039-1.052,1.918-1.857,2.636c-0.806,0.719-1.763,1.269-2.871,1.65c-1.108,0.381-2.338,0.571-3.688,0.571
			c-0.953,0-1.857-0.125-2.714-0.376c-0.857-0.251-1.52-0.567-1.987-0.948c-0.312,0.312-0.567,0.667-0.766,1.065
			c-0.199,0.399-0.299,0.857-0.299,1.377c0,0.606,0.282,1.108,0.845,1.506c0.563,0.398,1.312,0.615,2.247,0.649l6.104,0.26
			c1.16,0.035,2.225,0.195,3.195,0.48c0.97,0.286,1.81,0.693,2.52,1.221s1.264,1.178,1.663,1.948
			c0.398,0.771,0.598,1.667,0.598,2.688c0,1.074-0.226,2.095-0.676,3.065s-1.139,1.823-2.065,2.559
			c-0.926,0.736-2.108,1.316-3.545,1.741c-1.438,0.424-3.135,0.636-5.091,0.636c-1.888,0-3.493-0.16-4.818-0.48
			c-1.324-0.321-2.412-0.758-3.26-1.312c-0.849-0.554-1.463-1.216-1.844-1.987c-0.381-0.77-0.571-1.606-0.571-2.506
			c0-0.571,0.069-1.126,0.208-1.663s0.351-1.048,0.636-1.532c0.286-0.484,0.641-0.948,1.065-1.39
			c0.424-0.442,0.913-0.879,1.467-1.312c-0.849-0.433-1.476-0.978-1.883-1.636c-0.407-0.658-0.611-1.368-0.611-2.13
			c0-1.056,0.216-2,0.649-2.832c0.433-0.831,0.97-1.575,1.611-2.234c-0.537-0.64-0.961-1.364-1.273-2.168
			c-0.312-0.806-0.468-1.78-0.468-2.922c0-1.333,0.225-2.528,0.675-3.584s1.074-1.948,1.871-2.676
			c0.796-0.727,1.753-1.286,2.87-1.675c1.118-0.39,2.333-0.584,3.65-0.584c0.71,0,1.373,0.039,1.987,0.117
			c0.614,0.078,1.19,0.186,1.727,0.325h7.065c0.294,0,0.515,0.143,0.663,0.428C460.568,65.85,460.642,66.288,460.642,66.876z
			 M456.096,91.552c0-1.004-0.411-1.78-1.233-2.325c-0.823-0.546-1.936-0.835-3.338-0.87l-6.052-0.208
			c-0.554,0.433-1.008,0.844-1.363,1.234c-0.355,0.389-0.637,0.762-0.844,1.117c-0.208,0.355-0.351,0.706-0.429,1.052
			c-0.078,0.346-0.117,0.701-0.117,1.065c0,1.125,0.571,1.979,1.714,2.558c1.143,0.581,2.736,0.871,4.779,0.871
			c1.299,0,2.385-0.125,3.26-0.376c0.874-0.251,1.58-0.584,2.117-1c0.536-0.416,0.922-0.892,1.156-1.428
			C455.979,92.704,456.096,92.141,456.096,91.552z M453.94,73.032c0-1.593-0.438-2.835-1.312-3.727
			c-0.875-0.892-2.117-1.338-3.728-1.338c-0.831,0-1.554,0.139-2.169,0.416c-0.614,0.277-1.125,0.659-1.532,1.143
			c-0.407,0.485-0.71,1.043-0.909,1.676c-0.199,0.632-0.299,1.294-0.299,1.987c0,1.542,0.438,2.753,1.312,3.636
			c0.874,0.883,2.099,1.325,3.675,1.325c0.848,0,1.584-0.134,2.208-0.402c0.624-0.268,1.139-0.64,1.545-1.117
			c0.407-0.476,0.71-1.026,0.909-1.649C453.841,74.356,453.94,73.708,453.94,73.032z"/>
	</g>
	<g>
		<g id="XMLID_3_">
			<g>
				<path fill="#FFFFFF" d="M555.38,111.521c2.579,2.844,5.158,5.688,7.738,8.515c-9.469,8.621-18.956,17.26-28.425,25.881
					c-2.526-2.773-5.053-5.547-7.597-8.338l-0.124-0.406c0.866-0.248,1.802-1.643,2.685-2.244c1.661,1.802,3.304,3.622,4.947,5.441
					c7.632-6.183,15.334-13.85,22.983-20.599c-1.696-1.873-3.41-3.745-5.105-5.6C553.454,113.288,554.408,112.404,555.38,111.521z"
					/>
				<path fill="#FFFFFF" d="M558.1,109.048c-0.901,0.831-1.819,1.661-2.72,2.473c-2.58-2.826-5.159-5.67-7.755-8.515
					c0.918-0.813,1.819-1.643,2.703-2.474C552.942,103.377,555.521,106.221,558.1,109.048z"/>
				<path fill="#FFFFFF" d="M552.482,114.171c1.696,1.855,3.41,3.728,5.105,5.6c-7.649,6.749-15.352,14.416-22.983,20.599
					c-1.643-1.819-3.286-3.639-4.947-5.441c-0.883,0.601-1.819,1.996-2.685,2.244c-0.071,0.035-0.124,0.053-0.194,0.053
					c-1.661-1.819-3.304-3.622-4.946-5.441c-1.042,0.035-2.191,2.261-3.215,2.279c-1.661-1.802-3.304-3.622-4.964-5.441
					c-0.972,0.883-1.943,1.767-2.897,2.632c-1.696-1.854-3.41-3.728-5.105-5.6c-1.007,0.76-2.067,2.244-3.057,2.456
					c-0.83-0.918-1.66-1.819-2.473-2.72c-0.901,0.83-1.819,1.661-2.72,2.473c-1.59-1.979-4.081-4.01-5.088-5.954
					c1.802-1.661,3.622-3.303,5.423-4.946c0.883,0.954,1.767,1.925,2.65,2.897c1.007-0.707,2.067-2.332,3.056-2.456
					c2.526,2.774,5.053,5.547,7.579,8.338c0.972-0.883,1.943-1.767,2.897-2.65c-11.023-12.366-22.983-24.768-33.442-37.116
					c1.82-1.643,3.622-3.286,5.441-4.946c7.738,8.515,15.493,17.03,23.231,25.545c0.972-0.883,1.943-1.767,2.897-2.65
					c-3.233-3.781-7.384-7.632-10.034-11.377c1.819-1.643,3.604-3.304,5.441-4.946c3.41,3.745,6.801,7.473,10.211,11.218
					c0.972-0.883,1.926-1.749,2.897-2.632c-2.403-2.879-5.724-5.812-7.561-8.674c1.802-1.661,3.621-3.304,5.423-4.947
					c3.445,3.798,6.925,7.614,10.388,11.413c0.972-0.883,1.943-1.767,2.897-2.632c-2.579-2.844-5.158-5.688-7.738-8.515
					c0.954-0.883,1.926-1.767,2.897-2.632c0.866,0.954,1.749,1.926,2.632,2.897c0.936-0.671,1.961-2.226,2.879-2.297
					c5.989,6.572,11.978,13.161,17.949,19.733c-0.883,0.831-1.784,1.661-2.703,2.474c2.597,2.844,5.176,5.688,7.755,8.515
					C554.408,112.404,553.454,113.288,552.482,114.171z"/>
				<path fill="#FFFFFF" d="M535.117,77.973c6.042,6.643,12.083,13.285,18.125,19.928c-0.954,0.883-1.926,1.749-2.915,2.632
					c-5.971-6.572-11.96-13.161-17.949-19.733c-0.918,0.071-1.943,1.625-2.879,2.297c-0.883-0.972-1.767-1.943-2.632-2.897
					c0.901-0.83,1.802-1.661,2.703-2.491c0.83,0.918,1.66,1.819,2.473,2.72C533.05,80.217,534.092,78.75,535.117,77.973z"/>
				<path fill="#FFFFFF" d="M523.969,82.832c2.58,2.827,5.159,5.671,7.738,8.515c-0.954,0.866-1.925,1.749-2.897,2.632
					c-3.463-3.798-6.943-7.614-10.388-11.413c1.943-1.767,3.869-3.516,5.777-5.282c0.901,0.972,1.784,1.943,2.667,2.915
					C525.895,81.065,524.923,81.948,523.969,82.832z"/>
				<path fill="#FFFFFF" d="M526.973,137.172l0.124,0.406c-0.989,0.212-2.031,1.696-3.056,2.473c-1.696-1.89-3.41-3.745-5.105-5.635
					c-0.989,0.229-2.049,1.696-3.056,2.456c-1.714-1.873-3.41-3.728-5.123-5.618c0.954-0.865,1.925-1.749,2.897-2.632
					c1.661,1.819,3.304,3.639,4.964,5.441c1.024-0.018,2.173-2.244,3.215-2.279c1.643,1.819,3.286,3.622,4.946,5.441
					C526.849,137.225,526.902,137.208,526.973,137.172z"/>
				<path fill="#FFFFFF" d="M520.56,96.187c-0.972,0.883-1.926,1.749-2.897,2.632c-3.41-3.745-6.801-7.473-10.211-11.218
					l-0.141-0.212c2.844-1.854,5.776-5.141,8.656-7.543c0.813,0.918,1.643,1.819,2.456,2.72c-1.802,1.643-3.622,3.286-5.423,4.947
					C514.836,90.375,518.157,93.308,520.56,96.187z"/>
				<path fill="#FFFFFF" d="M513.917,123.092c-0.954,0.883-1.926,1.767-2.897,2.65c-2.526-2.791-5.052-5.564-7.579-8.338
					c-0.989,0.124-2.049,1.749-3.056,2.456c-0.883-0.972-1.767-1.943-2.65-2.897c0.972-0.883,1.926-1.767,2.897-2.65
					c-7.737-8.515-15.493-17.013-23.23-25.527c0.901-0.831,1.802-1.643,2.72-2.474c-0.141-1.095-2.314-2.438-2.473-3.074
					c1.873-1.696,3.745-3.41,5.6-5.105c0.901,0.972,1.784,1.926,2.667,2.897c-1.819,1.661-3.621,3.303-5.441,4.946
					C490.934,98.325,502.894,110.726,513.917,123.092z"/>
				<path fill="#FFFFFF" d="M512.045,103.925c-0.954,0.883-1.926,1.767-2.897,2.65c-7.738-8.515-15.493-17.03-23.231-25.545
					c0.954-0.866,1.926-1.749,2.897-2.632c3.462,3.798,6.925,7.614,10.37,11.412c1.873-1.713,3.745-3.41,5.618-5.123
					c0.813,0.918,1.661,1.819,2.473,2.721c0.018,0,0.018-0.018,0.036-0.018l0.141,0.212c-1.837,1.643-3.622,3.303-5.441,4.946
					C504.661,96.293,508.812,100.144,512.045,103.925z"/>
				<path fill="#FFFFFF" d="M505.65,125.654c1.696,1.873,3.409,3.746,5.105,5.6c-0.954,0.883-1.926,1.767-2.897,2.65
					c-1.643-1.819-3.286-3.621-4.946-5.441c-0.937,0.088-1.908,1.643-2.88,2.296c-0.865-0.971-1.749-1.925-2.632-2.897
					c0.901-0.813,1.819-1.643,2.72-2.473c0.813,0.901,1.643,1.802,2.473,2.72C503.583,127.897,504.643,126.414,505.65,125.654z"/>
				<path fill="#FFFFFF" d="M495.262,114.242c0.83,0.901,1.661,1.802,2.473,2.721c-1.802,1.643-3.622,3.286-5.423,4.946
					c1.007,1.943,3.498,3.975,5.088,5.954c-0.954,0.883-1.926,1.767-2.897,2.65c-2.579-2.844-5.159-5.688-7.755-8.515
					C489.591,119.4,492.436,116.821,495.262,114.242z"/>
			</g>
		</g>
		<path fill-rule="evenodd" clip-rule="evenodd" d="M482.296,85.975c10.457,12.337,22.41,24.747,33.445,37.119
			c-0.966,0.878-1.932,1.759-2.897,2.637c-2.527-2.779-5.063-5.562-7.583-8.333c-0.995,0.131-2.045,1.741-3.063,2.452
			c-0.878-0.965-1.758-1.93-2.642-2.899c0.965-0.877,1.93-1.757,2.897-2.636c-7.748-8.514-15.49-17.021-23.236-25.535
			c0.903-0.824,1.811-1.647,2.717-2.472c-0.137-1.1-2.302-2.443-2.463-3.068c1.872-1.706,3.743-3.409,5.617-5.114
			c0.884,0.973,1.759,1.934,2.645,2.905C485.918,82.682,484.111,84.327,482.296,85.975z"/>
		<path fill-rule="evenodd" clip-rule="evenodd" d="M490.628,78.394c3.458,3.8,6.92,7.607,10.38,11.406
			c1.871-1.703,3.747-3.409,5.618-5.112c0.822,0.907,1.65,1.813,2.474,2.721c2.857-1.843,5.789-5.154,8.677-7.562
			c0.826,0.908,1.646,1.812,2.467,2.713c-1.809,1.647-3.621,3.295-5.436,4.946c1.838,2.857,5.165,5.792,7.567,8.675
			c-0.963,0.878-1.926,1.755-2.894,2.637c-3.405-3.741-6.807-7.484-10.215-11.226c-1.813,1.649-3.627,3.298-5.432,4.942
			c2.646,3.761,6.801,7.603,10.031,11.394c-0.965,0.877-1.933,1.759-2.895,2.636c-7.751-8.514-15.491-17.02-23.237-25.533
			C488.696,80.152,489.663,79.269,490.628,78.394z"/>
		<path fill-rule="evenodd" clip-rule="evenodd" d="M520.244,82.559c1.935-1.757,3.86-3.516,5.794-5.271
			c0.881,0.969,1.762,1.932,2.637,2.897c-0.963,0.877-1.931,1.757-2.894,2.634c2.585,2.837,5.167,5.675,7.75,8.514
			c-0.967,0.882-1.935,1.764-2.901,2.641C527.171,90.167,523.708,86.367,520.244,82.559z"/>
		<path fill-rule="evenodd" clip-rule="evenodd" d="M494.122,121.895c1.009,1.956,3.514,3.979,5.1,5.963
			c-0.965,0.878-1.936,1.763-2.901,2.641c-2.583-2.835-5.165-5.675-7.748-8.516c2.835-2.582,5.675-5.165,8.514-7.749
			c0.823,0.906,1.647,1.813,2.469,2.716C497.744,118.601,495.933,120.247,494.122,121.895z"/>
		<path fill-rule="evenodd" clip-rule="evenodd" d="M499.222,127.857c0.901-0.821,1.811-1.647,2.716-2.471
			c0.818,0.899,1.644,1.809,2.468,2.714c0.993-0.217,2.047-1.688,3.066-2.454c1.705,1.87,3.408,3.743,5.108,5.609
			c-0.968,0.882-1.935,1.759-2.899,2.637c-1.649-1.807-3.295-3.617-4.942-5.428c-0.931,0.077-1.924,1.631-2.879,2.291
			C500.981,129.79,500.1,128.821,499.222,127.857z"/>
		<path fill-rule="evenodd" clip-rule="evenodd" d="M559.919,109.048c-0.908,0.824-1.813,1.647-2.723,2.476
			c2.579,2.835,5.162,5.672,7.746,8.511c-9.477,8.621-18.953,17.247-28.436,25.878c-2.531-2.78-5.054-5.554-7.583-8.331
			c-0.993,0.207-2.046,1.681-3.059,2.455c-1.708-1.875-3.409-3.745-5.116-5.621c-0.993,0.216-2.043,1.692-3.061,2.458
			c-1.704-1.875-3.402-3.739-5.11-5.617c0.961-0.875,1.928-1.755,2.897-2.637c1.65,1.817,3.299,3.628,4.951,5.442
			c1.037-0.021,2.185-2.242,3.218-2.28c1.65,1.812,3.299,3.622,4.95,5.438c0.928-0.087,1.924-1.64,2.89-2.296
			c1.646,1.805,3.291,3.617,4.943,5.432c7.625-6.173,15.327-13.839,22.982-20.587c-1.703-1.872-3.407-3.745-5.108-5.611
			c0.963-0.877,1.932-1.756,2.896-2.634c-2.583-2.837-5.166-5.675-7.75-8.517c0.909-0.826,1.814-1.649,2.72-2.476
			c-5.987-6.58-11.979-13.164-17.968-19.743c-0.928,0.084-1.924,1.638-2.883,2.294c-0.884-0.967-1.761-1.934-2.64-2.899
			c0.909-0.828,1.816-1.651,2.721-2.477c0.826,0.911,1.651,1.82,2.473,2.719c0.993-0.215,2.044-1.689,3.063-2.455
			c6.045,6.64,12.09,13.282,18.135,19.922c-0.969,0.882-1.932,1.759-2.901,2.638C554.751,103.373,557.334,106.21,559.919,109.048z"
			/>
	</g>
</g>
</svg>
