<?xml version="1.0" encoding="UTF-8" standalone="no"?>
<!-- Created with Inkscape (http://www.inkscape.org/) -->

<svg
   xmlns:dc="http://purl.org/dc/elements/1.1/"
   xmlns:cc="http://creativecommons.org/ns#"
   xmlns:rdf="http://www.w3.org/1999/02/22-rdf-syntax-ns#"
   xmlns:svg="http://www.w3.org/2000/svg"
   xmlns="http://www.w3.org/2000/svg"
   xmlns:sodipodi="http://sodipodi.sourceforge.net/DTD/sodipodi-0.dtd"
   xmlns:inkscape="http://www.inkscape.org/namespaces/inkscape"
   id="svg3004"
   version="1.1"
   inkscape:version="0.48.3.1 r9886"
   width="129.19"
   height="83.912498"
   xml:space="preserve"
   sodipodi:docname="brand-guidelines.pdf"><metadata
     id="metadata3010"><rdf:RDF><cc:Work
         rdf:about=""><dc:format>image/svg+xml</dc:format><dc:type
           rdf:resource="http://purl.org/dc/dcmitype/StillImage" /><dc:title></dc:title></cc:Work></rdf:RDF></metadata><defs
     id="defs3008"><clipPath
       clipPathUnits="userSpaceOnUse"
       id="clipPath3068"><path
         d="m 151,234.741 221.772,0 0,19.885 -221.772,0 0,-19.885 z"
         id="path3070"
         inkscape:connector-curvature="0" /></clipPath><clipPath
       clipPathUnits="userSpaceOnUse"
       id="clipPath3176"><path
         d="m 151,234.741 221.765,0 0,19.885 -221.765,0 0,-19.885 z"
         id="path3178"
         inkscape:connector-curvature="0" /></clipPath><clipPath
       clipPathUnits="userSpaceOnUse"
       id="clipPath3206"><path
         d="m 143.89,602.824 280.219,0 0,25.124 -280.219,0 0,-25.124 z"
         id="path3208"
         inkscape:connector-curvature="0" /></clipPath><clipPath
       clipPathUnits="userSpaceOnUse"
       id="clipPath3314"><path
         d="m 143.89,602.824 280.212,0 0,25.124 -280.212,0 0,-25.124 z"
         id="path3316"
         inkscape:connector-curvature="0" /></clipPath><clipPath
       clipPathUnits="userSpaceOnUse"
       id="clipPath3330"><path
         d="m 144.335,481.949 103.352,0 0,67.13 -103.352,0 0,-67.13 z"
         id="path3332"
         inkscape:connector-curvature="0" /></clipPath><clipPath
       clipPathUnits="userSpaceOnUse"
       id="clipPath3446"><path
         d="m 144.335,398.051 171,0 0,25.898 -171,0 0,-25.898 z"
         id="path3448"
         inkscape:connector-curvature="0" /></clipPath><clipPath
       clipPathUnits="userSpaceOnUse"
       id="clipPath3514"><path
         d="m 144,133.667 150.691,0 0,13.511 -150.691,0 0,-13.511 z"
         id="path3516"
         inkscape:connector-curvature="0" /></clipPath><clipPath
       clipPathUnits="userSpaceOnUse"
       id="clipPath3622"><path
         d="m 144,133.667 150.687,0 0,13.511 -150.687,0 0,-13.511 z"
         id="path3624"
         inkscape:connector-curvature="0" /></clipPath><clipPath
       clipPathUnits="userSpaceOnUse"
       id="clipPath3658"><path
         d="m 332.999,84.75 103.353,0 0,77.38 -103.353,0 0,-77.38 z"
         id="path3660"
         inkscape:connector-curvature="0" /></clipPath></defs><sodipodi:namedview
     pagecolor="#ffffff"
     bordercolor="#666666"
     borderopacity="1"
     objecttolerance="10"
     gridtolerance="10"
     guidetolerance="10"
     inkscape:pageopacity="0"
     inkscape:pageshadow="2"
     inkscape:window-width="1184"
     inkscape:window-height="852"
     id="namedview3006"
     showgrid="false"
     fit-margin-top="0"
     fit-margin-left="0"
     fit-margin-right="0"
     fit-margin-bottom="0"
     inkscape:zoom="0.57878788"
     inkscape:cx="202.08125"
     inkscape:cy="-107.43625"
     inkscape:window-x="0"
     inkscape:window-y="25"
     inkscape:window-maximized="0"
     inkscape:current-layer="g3012" /><g
     id="g3012"
     inkscape:groupmode="layer"
     inkscape:label="brand-guidelines"
     transform="matrix(1.25,0,0,-1.25,-180.41875,686.34875)"><g
       id="g3326"><g
         id="g3328"
         clip-path="url(#clipPath3330)"><g
           id="g3334"
           transform="translate(158.6092,548.5543)"><path
             d="m 0,0 -0.449,0 c -0.025,-0.523 -0.3,-0.748 -0.823,-0.748 -1.049,0 -2.746,1.273 -4.543,1.273 -5.116,0 -8.21,-5.041 -8.21,-9.484 0,-4.468 2.944,-8.885 7.886,-8.885 2.995,0 4.118,1.423 4.916,1.423 0.524,0 0.824,-0.65 0.923,-1.024 l 0.375,0 0,6.115 -0.375,0 -0.149,-0.849 c -0.349,-2.021 -2.221,-5.215 -5.44,-5.215 -2.846,0 -3.943,2.669 -3.943,8.734 0,6.365 1.497,8.735 4.017,8.735 2.846,0 4.967,-3.419 5.366,-5.964 L 0,-5.889 0,0 z"
             style="fill:#c41230;fill-opacity:1;fill-rule:nonzero;stroke:none"
             id="path3336"
             inkscape:connector-curvature="0" /></g><g
           id="g3338"
           transform="translate(172.2272,533.2261)"><path
             d="m 0,0 -0.443,0 c 0,-0.64 -0.271,-1.378 -0.861,-1.378 -0.444,0 -0.567,0.467 -0.567,1.23 l 0,5.662 c 0,2.806 -2.634,3.495 -5.168,3.495 -2.462,0 -4.259,-1.205 -4.259,-2.584 0,-0.861 0.492,-1.6 1.6,-1.6 0.935,0 1.501,0.615 1.501,1.476 0,1.183 -1.23,1.109 -1.255,1.527 -0.025,0.542 1.403,0.738 2.24,0.738 1.846,0 2.092,-0.91 2.092,-2.387 l 0,-2.067 -2.412,-0.197 c -2.241,-0.172 -4.677,-0.764 -4.677,-3.323 0,-2.142 1.92,-3.003 3.815,-3.003 0.961,0 2.659,0.368 3.299,1.55 0.443,-1.034 1.354,-1.55 2.462,-1.55 C -1.034,-2.411 0,-1.452 0,0 m -5.12,0.813 c -0.049,-1.305 -0.787,-2.487 -1.945,-2.487 -1.673,0 -1.747,1.526 -1.747,2.807 0,1.305 0.148,2.166 1.747,2.338 l 1.945,0.198 0,-2.856 z"
             style="fill:#c41230;fill-opacity:1;fill-rule:nonzero;stroke:none"
             id="path3340"
             inkscape:connector-curvature="0" /></g><g
           id="g3342"
           transform="translate(172.3752,531.1097)"><path
             d="m 0,0 7.36,0 0,0.443 -2.265,0 0,6.277 c 0,1.895 0.59,3.225 2.142,3.913 l 0.099,0 C 6.917,10.191 6.744,9.797 6.744,9.181 c 0,-0.959 0.715,-1.6 1.674,-1.6 1.182,0 1.871,0.862 1.871,1.797 0,1.182 -0.788,1.896 -1.944,1.896 -1.575,0 -2.782,-1.083 -3.25,-2.315 l -0.049,0 0,2.512 C 4.529,10.83 2.707,10.83 1.699,10.83 l -1.699,0 0,-0.442 1.699,0 0,-9.945 L 0,0.443 0,0 z"
             style="fill:#c41230;fill-opacity:1;fill-rule:nonzero;stroke:none"
             id="path3344"
             inkscape:connector-curvature="0" /></g><g
           id="g3346"
           transform="translate(183.0576,531.1097)"><path
             d="m 0,0 6.548,0 0,0.443 -1.452,0 0,6.744 c 0,1.256 1.23,3.053 2.609,3.053 0.714,0 1.453,-0.295 1.453,-2.018 l 0,-7.779 -1.405,0 0,-0.443 6.499,0 0,0.443 -1.698,0 0,6.868 c 0,2.658 -1.132,3.815 -3.471,3.815 -1.649,0 -3.273,-0.862 -3.938,-2.29 l -0.049,0 0,2.635 C 4.579,10.83 2.757,10.83 1.749,10.83 l -1.749,0 0,-0.442 1.699,0 0,-9.945 L 0,0.443 0,0 z"
             style="fill:#c41230;fill-opacity:1;fill-rule:nonzero;stroke:none"
             id="path3348"
             inkscape:connector-curvature="0" /></g><g
           id="g3350"
           transform="translate(219.9316,541.1283)"><path
             d="m 0,0 c 0,0.861 -0.936,1.304 -1.674,1.304 -0.813,0 -1.428,-0.541 -1.895,-1.083 -0.714,0.517 -1.698,0.886 -3.077,0.886 -2.068,0 -4.283,-1.353 -4.283,-3.594 0,-1.353 0.738,-2.412 2.043,-3.003 l 0,-0.049 c -0.96,-0.123 -2.462,-0.787 -2.462,-2.831 0,-1.23 0.566,-2.165 1.601,-2.461 l 0,-0.049 c -0.986,-0.271 -2.118,-1.256 -2.118,-2.437 0,-1.822 2.142,-3.225 4.875,-3.225 3.421,0 5.661,2.314 5.661,5.317 0,2.387 -1.181,3.47 -3.594,3.421 l -4.086,0 c -0.615,0 -1.452,0.025 -1.452,0.69 0,0.615 1.058,1.28 1.993,1.28 0.271,0 0.541,-0.074 0.812,-0.148 0.296,-0.098 0.617,-0.148 1.01,-0.148 2.117,0 4.381,1.206 4.381,3.545 0,0.788 -0.369,1.895 -1.058,2.486 0.443,0.444 0.664,0.985 1.624,1.108 l 0,-0.05 c -0.516,-0.27 -0.664,-0.59 -0.664,-1.083 0,-0.566 0.393,-1.131 1.132,-1.131 C -0.444,-1.255 0,-0.665 0,0 m -9.354,-10.905 3.865,0 c 2.461,0 3.274,-0.221 3.274,-1.723 0,-1.797 -2.216,-3.471 -4.701,-3.471 -2.216,0 -3.423,1.502 -3.472,2.683 0,1.083 0.37,1.797 1.034,2.511 m 4.283,8.418 c -0.024,-3.027 -0.665,-3.2 -1.551,-3.2 -0.985,0 -1.502,0.32 -1.502,3.274 0,1.995 0.222,3.077 1.502,3.077 1.157,0 1.527,-0.319 1.551,-3.151"
             style="fill:#c41230;fill-opacity:1;fill-rule:nonzero;stroke:none"
             id="path3352"
             inkscape:connector-curvature="0" /></g><g
           id="g3354"
           transform="translate(220.3255,531.1097)"><path
             d="m 0,0 6.794,0 0,0.443 -1.699,0 0,11.028 C 4.578,10.83 2.757,10.83 1.748,10.83 l -1.748,0 0,-0.442 1.698,0 0,-9.945 L 0,0.443 0,0 z"
             style="fill:#c41230;fill-opacity:1;fill-rule:nonzero;stroke:none"
             id="path3356"
             inkscape:connector-curvature="0" /></g><g
           id="g3358"
           transform="translate(221.9677,545.7622)"><path
             d="M 0,0 C 0,-0.975 0.78,-1.754 1.754,-1.754 2.73,-1.754 3.509,-0.975 3.509,0 3.509,0.975 2.73,1.755 1.754,1.755 0.78,1.755 0,0.975 0,0"
             style="fill:#c41230;fill-opacity:1;fill-rule:nonzero;stroke:none"
             id="path3360"
             inkscape:connector-curvature="0" /></g><g
           id="g3362"
           transform="translate(230.7455,537.0667)"><path
             d="M 0,0 6.793,0 C 6.769,2.658 4.307,5.218 1.724,5.169 c -2.906,0 -5.416,-2.511 -5.416,-5.834 0,-3.2 2.338,-5.587 5.489,-5.587 3.027,0 4.529,1.87 5.071,4.307 l -0.443,0 C 5.883,-4.234 4.455,-5.662 2.535,-5.662 0.246,-5.662 0,-3.742 0,-2.068 L 0,0 z M 0.054,0.443 0,2.56 c 0,1.649 0.713,2.166 1.551,2.166 1.181,0 1.551,-0.812 1.551,-2.166 l 0,-2.117 -3.048,0 z"
             style="fill:#c41230;fill-opacity:1;fill-rule:nonzero;stroke:none"
             id="path3364"
             inkscape:connector-curvature="0" /></g><g
           id="g3366"
           transform="translate(144.3347,509.4637)"><path
             d="m 0,0 4.774,0 0,0.443 -0.344,0 c -1.328,0 -1.846,0.345 -1.846,2.338 l 0,13.957 0.05,0 L 8.516,0 l 0.665,0 5.735,16.443 0.049,0 0,-16 -2.116,0 0,-0.443 7.803,0 0,0.443 -1.847,0 0,16.443 1.847,0 0,0.443 -5.933,0 -4.16,-11.889 -0.048,0 -4.087,11.889 -6.301,0 0,-0.443 1.871,0 0,-14.326 C 1.994,1.502 1.748,0.443 0.098,0.443 L 0,0.443 0,0 z"
             style="fill:#c41230;fill-opacity:1;fill-rule:nonzero;stroke:none"
             id="path3368"
             inkscape:connector-curvature="0" /></g><g
           id="g3370"
           transform="translate(168.4378,515.4203)"><path
             d="M 0,0 6.794,0 C 6.77,2.659 4.308,5.218 1.723,5.169 c -2.904,0 -5.415,-2.51 -5.415,-5.833 0,-3.201 2.338,-5.588 5.489,-5.588 3.028,0 4.53,1.871 5.071,4.307 l -0.443,0 C 5.884,-4.234 4.455,-5.662 2.535,-5.662 0.247,-5.662 0,-3.741 0,-2.068 L 0,0 z M 0,0.443 0,2.56 c 0,1.649 0.714,2.166 1.551,2.166 1.182,0 1.551,-0.812 1.551,-2.166 l 0,-2.117 -3.102,0 z"
             style="fill:#c41230;fill-opacity:1;fill-rule:nonzero;stroke:none"
             id="path3372"
             inkscape:connector-curvature="0" /></g><g
           id="g3374"
           transform="translate(175.306,509.4637)"><path
             d="m 0,0 6.794,0 0,0.443 -1.699,0 0,17.624 C 4.652,17.329 3.298,17.329 1.55,17.329 l -1.55,0 0,-0.443 1.699,0 0,-16.443 L 0,0.443 0,0 z"
             style="fill:#c41230;fill-opacity:1;fill-rule:nonzero;stroke:none"
             id="path3376"
             inkscape:connector-curvature="0" /></g><g
           id="g3378"
           transform="translate(182.543,509.4637)"><path
             d="m 0,0 6.793,0 0,0.443 -1.698,0 0,17.624 C 4.652,17.329 3.298,17.329 1.55,17.329 l -1.55,0 0,-0.443 1.698,0 0,-16.443 L 0,0.443 0,0 z"
             style="fill:#c41230;fill-opacity:1;fill-rule:nonzero;stroke:none"
             id="path3380"
             inkscape:connector-curvature="0" /></g><g
           id="g3382"
           transform="translate(200.8285,514.879)"><path
             d="m 0,0 c 0,3.372 -2.609,5.71 -5.858,5.71 -3.249,0 -5.859,-2.338 -5.859,-5.71 0,-3.372 2.61,-5.71 5.859,-5.71 C -2.609,-5.71 0,-3.372 0,0 m -3.84,-2.659 c 0,-1.846 -0.763,-2.609 -2.018,-2.609 -1.256,0 -2.018,0.763 -2.018,2.609 l 0,5.317 c 0,1.846 0.762,2.609 2.018,2.609 1.255,0 2.018,-0.763 2.018,-2.609 l 0,-5.317 z"
             style="fill:#c41230;fill-opacity:1;fill-rule:nonzero;stroke:none"
             id="path3384"
             inkscape:connector-curvature="0" /></g><g
           id="g3386"
           transform="translate(200.7339,509.4637)"><path
             d="m 0,0 6.548,0 0,0.443 -1.453,0 0,6.744 c 0,1.256 1.231,3.052 2.609,3.052 0.714,0 1.453,-0.295 1.453,-2.017 l 0,-7.779 -1.404,0 0,-0.443 6.499,0 0,0.443 -1.698,0 0,6.867 c 0,2.659 -1.133,3.816 -3.471,3.816 -1.65,0 -3.274,-0.862 -3.939,-2.289 l -0.049,0 0,2.633 C 4.578,10.83 2.757,10.83 1.748,10.83 l -1.748,0 0,-0.442 1.698,0 0,-9.945 L 0,0.443 0,0 z"
             style="fill:#c41230;fill-opacity:1;fill-rule:nonzero;stroke:none"
             id="path3388"
             inkscape:connector-curvature="0" /></g><g
           id="g3390"
           transform="translate(144.3841,505.1614)"><path
             d="m 0,0 1.92,0 0,-11.152 c 0,-3.815 2.634,-6.129 6.646,-6.129 4.53,0 6.498,2.388 6.498,6.006 l 0,9.207 c 0,1.427 0.394,2.068 1.281,2.068 l 0.64,0 0,0.443 -4.875,0 0,-0.443 0.715,0 c 1.255,0 1.649,-0.641 1.649,-2.068 l 0,-9.354 c 0,-3.349 -2.019,-4.972 -4.407,-4.972 -3.593,0 -4.307,2.412 -4.307,5.563 L 5.76,0 7.753,0 7.753,0.443 0,0.443 0,0 z"
             style="fill:#c41230;fill-opacity:1;fill-rule:nonzero;stroke:none"
             id="path3392"
             inkscape:connector-curvature="0" /></g><g
           id="g3394"
           transform="translate(160.3999,488.2747)"><path
             d="m 0,0 6.548,0 0,0.444 -1.453,0 0,6.744 c 0,1.255 1.231,3.053 2.609,3.053 0.714,0 1.453,-0.296 1.453,-2.019 l 0,-7.778 -1.404,0 0,-0.444 6.499,0 0,0.444 -1.698,0 0,6.867 c 0,2.659 -1.133,3.816 -3.471,3.816 -1.65,0 -3.273,-0.862 -3.939,-2.29 l -0.049,0 0,2.634 c -0.517,-0.64 -2.338,-0.64 -3.347,-0.64 l -1.748,0 0,-0.443 1.698,0 0,-9.944 L 0,0.444 0,0 z"
             style="fill:#c41230;fill-opacity:1;fill-rule:nonzero;stroke:none"
             id="path3396"
             inkscape:connector-curvature="0" /></g><g
           id="g3398"
           transform="translate(175.0211,488.2747)"><path
             d="m 0,0 6.794,0 0,0.444 -1.699,0 0,11.027 c -0.517,-0.64 -2.339,-0.64 -3.348,-0.64 l -1.747,0 0,-0.443 1.698,0 0,-9.944 L 0,0.444 0,0 z"
             style="fill:#c41230;fill-opacity:1;fill-rule:nonzero;stroke:none"
             id="path3400"
             inkscape:connector-curvature="0" /></g><g
           id="g3402"
           transform="translate(176.6627,502.9283)"><path
             d="m 0,0 c 0,-0.975 0.78,-1.755 1.755,-1.755 0.976,0 1.754,0.78 1.754,1.755 0,0.974 -0.778,1.754 -1.754,1.754 C 0.78,1.754 0,0.974 0,0"
             style="fill:#c41230;fill-opacity:1;fill-rule:nonzero;stroke:none"
             id="path3404"
             inkscape:connector-curvature="0" /></g><g
           id="g3406"
           transform="translate(186.8118,487.98)"><path
             d="m 0,0 0.664,0 3.644,8.615 c 0.615,1.379 1.131,2.043 1.697,2.068 l 0.222,0 0,0.443 -3.84,0 0,-0.443 0.468,0 c 0.714,0 1.132,-0.271 1.132,-0.911 0,-0.394 -0.123,-0.936 -0.418,-1.624 l -1.673,-3.94 -2.881,6.475 1.477,0 0,0.443 -6.178,0 0,-0.443 1.058,0 L 0,0 z"
             style="fill:#c41230;fill-opacity:1;fill-rule:nonzero;stroke:none"
             id="path3408"
             inkscape:connector-curvature="0" /></g><g
           id="g3410"
           transform="translate(195.9447,494.2321)"><path
             d="M 0,0 6.793,0 C 6.769,2.658 4.307,5.218 1.722,5.169 c -2.904,0 -5.415,-2.511 -5.415,-5.834 0,-3.2 2.339,-5.587 5.489,-5.587 3.028,0 4.53,1.869 5.071,4.307 l -0.443,0 C 5.883,-4.234 4.455,-5.662 2.535,-5.662 0.245,-5.662 0,-3.742 0,-2.068 L 0,0 z M 0,0.443 0,2.56 c 0,1.649 0.713,2.166 1.55,2.166 1.181,0 1.551,-0.812 1.551,-2.166 l 0,-2.117 -3.101,0 z"
             style="fill:#c41230;fill-opacity:1;fill-rule:nonzero;stroke:none"
             id="path3412"
             inkscape:connector-curvature="0" /></g><g
           id="g3414"
           transform="translate(202.7844,488.2747)"><path
             d="m 0,0 7.36,0 0,0.444 -2.265,0 0,6.276 c 0,1.896 0.591,3.225 2.142,3.914 l 0.098,0 C 6.916,10.191 6.744,9.797 6.744,9.181 c 0,-0.959 0.715,-1.599 1.674,-1.599 1.182,0 1.871,0.861 1.871,1.797 0,1.182 -0.787,1.895 -1.945,1.895 -1.575,0 -2.78,-1.083 -3.249,-2.314 l -0.049,0 0,2.511 c -0.517,-0.64 -2.338,-0.64 -3.348,-0.64 l -1.698,0 0,-0.443 1.698,0 0,-9.944 L 0,0.444 0,0 z"
             style="fill:#c41230;fill-opacity:1;fill-rule:nonzero;stroke:none"
             id="path3416"
             inkscape:connector-curvature="0" /></g><g
           id="g3418"
           transform="translate(213.6559,487.98)"><path
             d="M 0,0 0.443,0 C 0.566,0.394 0.96,0.59 1.452,0.59 2.092,0.59 2.856,0 4.234,0 c 2.339,0 3.938,2.018 3.938,4.036 0,3.004 -2.067,3.226 -4.701,3.595 -1.379,0.197 -2.24,0.418 -2.24,1.5 0,1.158 1.009,1.847 2.338,1.847 1.846,0 2.831,-1.452 3.446,-3.052 l 0.394,0 -0.147,3.495 -0.37,0 c 0,-0.295 -0.295,-0.541 -0.762,-0.541 -0.789,0 -1.429,0.541 -2.561,0.541 -2.462,0 -3.668,-2.093 -3.668,-3.667 0,-3.176 2.413,-3.447 4.284,-3.668 1.773,-0.222 2.51,-0.394 2.51,-1.527 0,-1.304 -1.082,-2.117 -2.412,-2.117 -1.87,0 -3.397,1.896 -3.84,3.693 L 0,4.135 0,0 z"
             style="fill:#c41230;fill-opacity:1;fill-rule:nonzero;stroke:none"
             id="path3420"
             inkscape:connector-curvature="0" /></g><g
           id="g3422"
           transform="translate(222.2149,488.2747)"><path
             d="m 0,0 6.794,0 0,0.444 -1.698,0 0,11.027 C 4.58,10.831 2.757,10.831 1.748,10.831 l -1.748,0 0,-0.443 1.699,0 0,-9.944 L 0,0.444 0,0 z"
             style="fill:#c41230;fill-opacity:1;fill-rule:nonzero;stroke:none"
             id="path3424"
             inkscape:connector-curvature="0" /></g><g
           id="g3426"
           transform="translate(223.8583,502.9283)"><path
             d="m 0,0 c 0,-0.975 0.779,-1.755 1.754,-1.755 0.974,0 1.755,0.78 1.755,1.755 0,0.974 -0.781,1.754 -1.755,1.754 C 0.779,1.754 0,0.974 0,0"
             style="fill:#c41230;fill-opacity:1;fill-rule:nonzero;stroke:none"
             id="path3428"
             inkscape:connector-curvature="0" /></g><g
           id="g3430"
           transform="translate(230.186,498.6628)"><path
             d="m 0,0 0,-7.877 c 0,-2.338 2.017,-2.806 2.706,-2.806 1.502,0 2.512,0.615 3.274,1.895 L 5.66,-8.616 C 5.365,-9.059 4.971,-9.649 4.357,-9.649 c -0.641,0 -0.961,0.467 -0.961,1.279 l 0,8.37 2.264,0 0,0.443 -2.264,0 0,5.292 -0.444,0 C 2.952,3.127 1.181,0.443 -1.306,0.443 L -1.306,0 0,0 z"
             style="fill:#c41230;fill-opacity:1;fill-rule:nonzero;stroke:none"
             id="path3432"
             inkscape:connector-curvature="0" /></g><g
           id="g3434"
           transform="translate(235.7724,498.6628)"><path
             d="M 0,0 1.034,0 5.761,-10.954 5.613,-11.938 C 5.514,-12.652 5.022,-15.459 4.21,-15.705 l 0,0.074 c 0.098,0.344 0.123,0.616 0.123,0.837 0,0.837 -0.591,1.477 -1.625,1.477 -1.083,0 -1.625,-0.738 -1.625,-1.673 0,-1.01 0.936,-1.724 2.019,-1.724 1.945,0 2.437,2.141 2.659,3.175 l 0.664,3.003 1.28,3.2 2.437,5.489 C 10.683,-0.591 11.176,0 11.718,0 l 0.197,0 0,0.443 -3.841,0 0,-0.443 0.517,0 c 0.788,0 1.132,-0.443 1.132,-0.861 0,-0.493 -0.319,-1.305 -0.713,-2.241 L 7.582,-6.474 4.703,0 6.326,0 6.326,0.443 0,0.443 0,0 z"
             style="fill:#c41230;fill-opacity:1;fill-rule:nonzero;stroke:none"
             id="path3436"
             inkscape:connector-curvature="0" /></g><g
           id="g3438"
           transform="translate(201.1991,537.0667)"><path
             d="M 0,0 6.793,0 C 6.769,2.658 4.307,5.218 1.724,5.169 c -2.906,0 -5.416,-2.511 -5.416,-5.834 0,-3.2 2.338,-5.587 5.489,-5.587 3.027,0 4.529,1.87 5.071,4.307 l -0.443,0 C 5.883,-4.234 4.455,-5.662 2.535,-5.662 0.246,-5.662 0,-3.742 0,-2.068 L 0,0 z M 0.054,0.443 0,2.56 c 0,1.649 0.714,2.166 1.551,2.166 1.181,0 1.551,-0.812 1.551,-2.166 l 0,-2.117 -3.048,0 z"
             style="fill:#c41230;fill-opacity:1;fill-rule:nonzero;stroke:none"
             id="path3440"
             inkscape:connector-curvature="0" /></g></g></g></g></svg>