<?xml version="1.0" encoding="UTF-8" standalone="no"?>
<!-- Created with Inkscape (http://www.inkscape.org/) -->

<svg
   xmlns:dc="http://purl.org/dc/elements/1.1/"
   xmlns:cc="http://creativecommons.org/ns#"
   xmlns:rdf="http://www.w3.org/1999/02/22-rdf-syntax-ns#"
   xmlns:svg="http://www.w3.org/2000/svg"
   xmlns="http://www.w3.org/2000/svg"
   xmlns:sodipodi="http://sodipodi.sourceforge.net/DTD/sodipodi-0.dtd"
   xmlns:inkscape="http://www.inkscape.org/namespaces/inkscape"
   id="svg3004"
   version="1.1"
   inkscape:version="0.48.3.1 r9886"
   width="162.82925"
   height="131.66812"
   xml:space="preserve"
   sodipodi:docname="profile-09-10.pdf"><metadata
     id="metadata3010"><rdf:RDF><cc:Work
         rdf:about=""><dc:format>image/svg+xml</dc:format><dc:type
           rdf:resource="http://purl.org/dc/dcmitype/StillImage" /><dc:title></dc:title></cc:Work></rdf:RDF></metadata><defs
     id="defs3008"><clipPath
       clipPathUnits="userSpaceOnUse"
       id="clipPath3018"><path
         d="m 0,0 595.275,0 0,668.409 L 0,668.409 0,0 z"
         id="path3020"
         inkscape:connector-curvature="0" /></clipPath><clipPath
       clipPathUnits="userSpaceOnUse"
       id="clipPath3032"><path
         d="m 0,700.158 595.275,0 0,141.732 L 0,841.89 0,700.158 z"
         id="path3034"
         inkscape:connector-curvature="0" /></clipPath><clipPath
       clipPathUnits="userSpaceOnUse"
       id="clipPath3046"><path
         d="m 0,0 595.276,0 0,841.89 L 0,841.89 0,0 z"
         id="path3048"
         inkscape:connector-curvature="0" /></clipPath><clipPath
       clipPathUnits="userSpaceOnUse"
       id="clipPath3062"><path
         d="m 0,0 595.276,0 0,841.89 L 0,841.89 0,0 z"
         id="path3064"
         inkscape:connector-curvature="0" /></clipPath><clipPath
       clipPathUnits="userSpaceOnUse"
       id="clipPath3078"><path
         d="m 0,0 595.276,0 0,841.89 L 0,841.89 0,0 z"
         id="path3080"
         inkscape:connector-curvature="0" /></clipPath><clipPath
       clipPathUnits="userSpaceOnUse"
       id="clipPath3106"><path
         d="m 0,0 595.276,0 0,841.89 L 0,841.89 0,0 z"
         id="path3108"
         inkscape:connector-curvature="0" /></clipPath><clipPath
       clipPathUnits="userSpaceOnUse"
       id="clipPath3146"><path
         d="m 0,0 595.276,0 0,841.89 L 0,841.89 0,0 z"
         id="path3148"
         inkscape:connector-curvature="0" /></clipPath><clipPath
       clipPathUnits="userSpaceOnUse"
       id="clipPath3170"><path
         d="m 0,0 595.276,0 0,841.89 L 0,841.89 0,0 z"
         id="path3172"
         inkscape:connector-curvature="0" /></clipPath><clipPath
       clipPathUnits="userSpaceOnUse"
       id="clipPath3184"><path
         d="m 0,0 595.276,0 0,841.89 L 0,841.89 0,0 z"
         id="path3186"
         inkscape:connector-curvature="0" /></clipPath><clipPath
       clipPathUnits="userSpaceOnUse"
       id="clipPath3200"><path
         d="m 0,0 595.276,0 0,841.89 L 0,841.89 0,0 z"
         id="path3202"
         inkscape:connector-curvature="0" /></clipPath><clipPath
       clipPathUnits="userSpaceOnUse"
       id="clipPath3270"><path
         d="m 0,0 595.276,0 0,841.89 L 0,841.89 0,0 z"
         id="path3272"
         inkscape:connector-curvature="0" /></clipPath><clipPath
       clipPathUnits="userSpaceOnUse"
       id="clipPath3294"><path
         d="m 0,0 595.276,0 0,841.89 L 0,841.89 0,0 z"
         id="path3296"
         inkscape:connector-curvature="0" /></clipPath><clipPath
       clipPathUnits="userSpaceOnUse"
       id="clipPath3326"><path
         d="m 0,0 595.276,0 0,841.89 L 0,841.89 0,0 z"
         id="path3328"
         inkscape:connector-curvature="0" /></clipPath><clipPath
       clipPathUnits="userSpaceOnUse"
       id="clipPath3356"><path
         d="m 0,0 595.276,0 0,841.89 L 0,841.89 0,0 z"
         id="path3358"
         inkscape:connector-curvature="0" /></clipPath><clipPath
       clipPathUnits="userSpaceOnUse"
       id="clipPath3394"><path
         d="m 0,0 595.276,0 0,841.89 L 0,841.89 0,0 z"
         id="path3396"
         inkscape:connector-curvature="0" /></clipPath><clipPath
       clipPathUnits="userSpaceOnUse"
       id="clipPath3454"><path
         d="m 0,0 595.276,0 0,841.89 L 0,841.89 0,0 z"
         id="path3456"
         inkscape:connector-curvature="0" /></clipPath></defs><sodipodi:namedview
     pagecolor="#ffffff"
     bordercolor="#666666"
     borderopacity="1"
     objecttolerance="10"
     gridtolerance="10"
     guidetolerance="10"
     inkscape:pageopacity="0"
     inkscape:pageshadow="2"
     inkscape:window-width="1110"
     inkscape:window-height="832"
     id="namedview3006"
     showgrid="false"
     fit-margin-top="0"
     fit-margin-left="0"
     fit-margin-right="0"
     fit-margin-bottom="0"
     inkscape:zoom="1.61"
     inkscape:cx="89.77767"
     inkscape:cy="-18.596467"
     inkscape:window-x="0"
     inkscape:window-y="25"
     inkscape:window-maximized="0"
     inkscape:current-layer="g3012" /><g
     id="g3012"
     inkscape:groupmode="layer"
     inkscape:label="profile-09-10"
     transform="matrix(1.25,0,0,-1.25,-291.0395,870.47312)"><path
       d="m 233.002,602.981 130.093,0 0,-11.937 -130.093,0 0,11.937 z"
       style="fill:#00467f;fill-opacity:1;fill-rule:nonzero;stroke:none"
       id="path3228"
       inkscape:connector-curvature="0" /><g
       id="g3230"
       transform="translate(267.9959,600.2779)"><path
         d="m 0,0 -1.505,0 0,-4.102 -3.223,4.102 -1.381,0 0,-6.71 1.505,0 0,4.3 3.338,-4.3 L 0,-6.71 0,0 z"
         style="fill:#ffffff;fill-opacity:1;fill-rule:nonzero;stroke:none"
         id="path3232"
         inkscape:connector-curvature="0" /></g><g
       id="g3234"
       transform="translate(274.0412,594.7982)"><path
         d="m 0,0 -2.948,0 0,1.613 2.753,0 0,1.23 -2.753,0 0,1.407 2.886,0 0,1.23 -4.391,0 0,-6.71 L 0,-1.23 0,0 z"
         style="fill:#ffffff;fill-opacity:1;fill-rule:nonzero;stroke:none"
         id="path3236"
         inkscape:connector-curvature="0" /></g><g
       id="g3238"
       transform="translate(279.6982,597.8577)"><path
         d="m 0,0 1.877,-4.378 0.646,0 2.648,6.798 -1.594,0 -1.417,-3.709 -1.549,3.709 -1.213,0 -1.549,-3.709 -1.426,3.709 -1.594,0 2.656,-6.798 0.647,0 L 0,0 z"
         style="fill:#ffffff;fill-opacity:1;fill-rule:nonzero;stroke:none"
         id="path3240"
         inkscape:connector-curvature="0" /></g><g
       id="g3242"
       transform="translate(294.529,600.2779)"><path
         d="m 0,0 -5.958,0 0.033,-1.23 3.384,0 -3.614,-5.48 5.861,0 0,1.23 -3.294,0 L 0,0 z"
         style="fill:#ffffff;fill-opacity:1;fill-rule:nonzero;stroke:none"
         id="path3244"
         inkscape:connector-curvature="0" /></g><g
       id="g3246"
       transform="translate(299.7618,594.7982)"><path
         d="m 0,0 -2.948,0 0,1.613 2.753,0 0,1.23 -2.753,0 0,1.407 2.886,0 0,1.23 -4.391,0 0,-6.71 L 0,-1.23 0,0 z"
         style="fill:#ffffff;fill-opacity:1;fill-rule:nonzero;stroke:none"
         id="path3248"
         inkscape:connector-curvature="0" /></g><g
       id="g3250"
       transform="translate(304.5033,600.2779)"><path
         d="m 0,0 -1.744,0 -2.435,-6.71 1.593,0 0.452,1.329 2.701,0 0.495,-1.329 1.621,0 L 0,0 z m 0.124,-4.211 -1.859,0 0.885,2.607 0.974,-2.607 z"
         style="fill:#ffffff;fill-opacity:1;fill-rule:nonzero;stroke:none"
         id="path3252"
         inkscape:connector-curvature="0" /></g><g
       id="g3254"
       transform="translate(312.6264,594.7982)"><path
         d="m 0,0 -3.099,0 0,5.48 -1.505,0 0,-6.71 L 0,-1.23 0,0 z"
         style="fill:#ffffff;fill-opacity:1;fill-rule:nonzero;stroke:none"
         id="path3256"
         inkscape:connector-curvature="0" /></g><g
       id="g3258"
       transform="translate(317.2214,600.2779)"><path
         d="m 0,0 -1.744,0 -2.435,-6.71 1.594,0 0.451,1.329 2.701,0 0.496,-1.329 1.62,0 L 0,0 z m 0.124,-4.211 -1.859,0 0.885,2.607 0.974,-2.607 z"
         style="fill:#ffffff;fill-opacity:1;fill-rule:nonzero;stroke:none"
         id="path3260"
         inkscape:connector-curvature="0" /></g><g
       id="g3262"
       transform="translate(326.4762,600.2779)"><path
         d="m 0,0 -1.505,0 0,-4.102 -3.223,4.102 -1.381,0 0,-6.71 1.505,0 0,4.3 3.338,-4.3 L 0,-6.71 0,0 z"
         style="fill:#ffffff;fill-opacity:1;fill-rule:nonzero;stroke:none"
         id="path3264"
         inkscape:connector-curvature="0" /></g><g
       id="g3266"><g
         id="g3268"
         clip-path="url(#clipPath3270)"><g
           id="g3274"
           transform="translate(328.1257,600.2779)"><path
             d="m 0,0 0,-6.71 2.497,0 c 2.408,0 3.506,1.417 3.506,3.345 C 6.003,-1.525 4.87,0 2.665,0 L 0,0 z m 1.505,-1.23 0.965,0 c 1.426,0 1.983,-0.974 1.983,-2.125 0,-0.984 -0.451,-2.125 -1.965,-2.125 l -0.983,0 0,4.25 z"
             style="fill:#ffffff;fill-opacity:1;fill-rule:nonzero;stroke:none"
             id="path3276"
             inkscape:connector-curvature="0" /></g><g
           id="g3278"
           transform="translate(239.5336,614.9557)"><path
             d="m 0,0 c 0,-3.237 2.221,-6.125 5.733,-6.125 3.638,0 5.812,2.905 5.812,6.125 0,3.325 -2.237,6.125 -5.781,6.125 C 2.284,6.125 0,3.308 0,0 m 1.591,0 c 0,2.625 1.779,4.55 4.173,4.55 2.41,0 4.19,-1.925 4.19,-4.55 0,-2.607 -1.78,-4.55 -4.19,-4.55 -2.394,0 -4.173,1.943 -4.173,4.55"
             style="fill:#000000;fill-opacity:1;fill-rule:nonzero;stroke:none"
             id="path3280"
             inkscape:connector-curvature="0" /></g></g></g><g
       id="g3282"
       transform="translate(259.3448,620.9233)"><path
         d="m 0,0 -5.733,0 0,-11.935 1.544,0 0,5.548 4.189,0 0,1.539 -4.189,0 0,3.308 L 0,-1.54 0,0 z"
         style="fill:#000000;fill-opacity:1;fill-rule:nonzero;stroke:none"
         id="path3284"
         inkscape:connector-curvature="0" /></g><g
       id="g3286"
       transform="translate(270.1864,620.9933)"><path
         d="m 0,0 -1.087,0 -4.614,-12.005 1.575,0 1.354,3.518 4.567,0 1.434,-3.518 1.575,0 L 0,0 z m -0.567,-2.625 1.733,-4.323 -3.339,0 1.606,4.323 z"
         style="fill:#000000;fill-opacity:1;fill-rule:nonzero;stroke:none"
         id="path3288"
         inkscape:connector-curvature="0" /></g><g
       id="g3290"><g
         id="g3292"
         clip-path="url(#clipPath3294)"><g
           id="g3298"
           transform="translate(285.7287,620.9233)"><path
             d="m 0,0 -1.543,0 0,-6.947 c 0,-1.121 -0.126,-1.996 -0.678,-2.608 -0.488,-0.543 -1.338,-0.963 -2.52,-0.963 -0.929,0 -1.701,0.333 -2.315,1.015 -0.488,0.543 -0.646,1.103 -0.646,2.45 l 0,7.053 -1.543,0 0,-7.42 c 0,-3.255 2.205,-4.673 4.473,-4.673 3.197,0 4.772,1.925 4.772,4.848 L 0,0 z"
             style="fill:#000000;fill-opacity:1;fill-rule:nonzero;stroke:none"
             id="path3300"
             inkscape:connector-curvature="0" /></g><g
           id="g3302"
           transform="translate(297.5585,620.1007)"><path
             d="m 0,0 c -1.465,0.682 -2.583,0.98 -3.686,0.98 -3.417,0 -5.89,-2.66 -5.89,-6.3 0,-2.502 1.764,-5.95 5.796,-5.95 1.685,0 2.835,0.438 3.89,1.05 l 0,1.873 c -1.213,-0.876 -2.536,-1.348 -3.748,-1.348 -2.583,0 -4.347,1.855 -4.347,4.532 0,2.626 1.827,4.568 4.284,4.568 1.244,0 2.378,-0.385 3.701,-1.242 L 0,0 z"
             style="fill:#000000;fill-opacity:1;fill-rule:nonzero;stroke:none"
             id="path3304"
             inkscape:connector-curvature="0" /></g></g></g><g
       id="g3306"
       transform="translate(304.0236,615.2707)"><path
         d="m 0,0 4.678,5.653 -1.922,0 -4.52,-5.461 0,5.461 -1.544,0 0,-11.936 1.544,0 0,5.898 5.465,-5.898 2.126,0 L 0,0 z"
         style="fill:#000000;fill-opacity:1;fill-rule:nonzero;stroke:none"
         id="path3308"
         inkscape:connector-curvature="0" /></g><g
       id="g3310"
       transform="translate(313.5743,620.9233)"><path
         d="m 0,0 -1.543,0 0,-11.935 6.394,0 0,1.54 -4.851,0 L 0,0 z"
         style="fill:#000000;fill-opacity:1;fill-rule:nonzero;stroke:none"
         id="path3312"
         inkscape:connector-curvature="0" /></g><g
       id="g3314"
       transform="translate(325.8063,620.9933)"><path
         d="m 0,0 -1.087,0 -4.614,-12.005 1.575,0 1.354,3.518 4.567,0 1.434,-3.518 1.575,0 L 0,0 z m -0.567,-2.625 1.733,-4.323 -3.339,0 1.606,4.323 z"
         style="fill:#000000;fill-opacity:1;fill-rule:nonzero;stroke:none"
         id="path3316"
         inkscape:connector-curvature="0" /></g><g
       id="g3318"
       transform="translate(342.8663,620.9233)"><path
         d="m 0,0 -1.449,0 0,-9.24 -7.276,9.24 -1.228,0 0,-11.935 1.448,0 0,9.187 7.182,-9.187 1.323,0 L 0,0 z"
         style="fill:#000000;fill-opacity:1;fill-rule:nonzero;stroke:none"
         id="path3320"
         inkscape:connector-curvature="0" /></g><g
       id="g3322"><g
         id="g3324"
         clip-path="url(#clipPath3326)"><g
           id="g3330"
           transform="translate(345.8932,608.9882)"><path
             d="m 0,0 4.189,0 c 3.544,0 5.702,2.905 5.702,5.968 0,2.817 -1.748,5.967 -5.717,5.967 L 0,11.935 0,0 z m 1.543,10.395 2.378,0 C 6.93,10.395 8.3,8.365 8.3,5.968 8.3,4.497 7.497,1.54 4,1.54 l -2.457,0 0,8.855 z"
             style="fill:#000000;fill-opacity:1;fill-rule:nonzero;stroke:none"
             id="path3332"
             inkscape:connector-curvature="0" /></g><g
           id="g3334"
           transform="translate(278.0672,638.0837)"><path
             d="m 0,0 -1.543,0 0,-6.948 c 0,-1.12 -0.126,-1.995 -0.678,-2.607 -0.488,-0.543 -1.339,-0.963 -2.52,-0.963 -0.929,0 -1.701,0.333 -2.315,1.015 -0.488,0.543 -0.646,1.103 -0.646,2.45 l 0,7.053 -1.543,0 0,-7.42 c 0,-3.255 2.205,-4.673 4.473,-4.673 3.197,0 4.772,1.925 4.772,4.848 L 0,0 z"
             style="fill:#000000;fill-opacity:1;fill-rule:nonzero;stroke:none"
             id="path3336"
             inkscape:connector-curvature="0" /></g></g></g><g
       id="g3338"
       transform="translate(290.6479,638.0837)"><path
         d="m 0,0 -1.449,0 0,-9.24 -7.276,9.24 -1.229,0 0,-11.935 1.449,0 0,9.187 7.182,-9.187 1.323,0 L 0,0 z"
         style="fill:#000000;fill-opacity:1;fill-rule:nonzero;stroke:none"
         id="path3340"
         inkscape:connector-curvature="0" /></g><path
       d="m 295.242,638.084 -1.543,0 0,-11.935 1.543,0 0,11.935 z"
       style="fill:#000000;fill-opacity:1;fill-rule:nonzero;stroke:none"
       id="path3342"
       inkscape:connector-curvature="0" /><g
       id="g3344"
       transform="translate(307.308,638.0837)"><path
         d="M 0,0 -1.528,0 -4.741,-8.383 -7.969,0 l -1.544,0 4.646,-12.04 0.315,0 L 0,0 z"
         style="fill:#000000;fill-opacity:1;fill-rule:nonzero;stroke:none"
         id="path3346"
         inkscape:connector-curvature="0" /></g><g
       id="g3348"
       transform="translate(316.1738,638.0837)"><path
         d="m 0,0 -6.095,0 0,-11.935 6.237,0 0,1.54 -4.694,0 0,3.71 4.394,0 0,1.54 -4.394,0 0,3.605 L 0,-1.54 0,0 z"
         style="fill:#000000;fill-opacity:1;fill-rule:nonzero;stroke:none"
         id="path3350"
         inkscape:connector-curvature="0" /></g><g
       id="g3352"><g
         id="g3354"
         clip-path="url(#clipPath3356)"><g
           id="g3360"
           transform="translate(319.8589,638.0837)"><path
             d="m 0,0 0,-11.935 1.544,0 0,5.18 0.645,0 c 0.788,0 1.434,-0.28 2.851,-2.73 l 1.417,-2.45 1.843,0 c -0.74,1.137 -1.008,1.54 -1.464,2.362 -0.819,1.488 -1.418,2.59 -2.395,3.308 1.15,0.507 1.796,1.54 1.796,2.922 C 6.237,-1.278 4.882,0 2.709,0 L 0,0 z m 1.544,-1.47 0.992,0 c 1.496,0 2.095,-0.683 2.11,-1.803 C 4.662,-4.27 4.19,-5.215 2.536,-5.215 l -0.992,0 0,3.745 z"
             style="fill:#000000;fill-opacity:1;fill-rule:nonzero;stroke:none"
             id="path3362"
             inkscape:connector-curvature="0" /></g><g
           id="g3364"
           transform="translate(335.4412,637.4012)"><path
             d="m 0,0 c -0.756,0.56 -1.575,0.84 -2.394,0.84 -1.969,0 -3.26,-1.243 -3.26,-3.185 0,-3.273 4.646,-3.553 4.646,-6.02 0,-0.665 -0.551,-1.505 -1.748,-1.505 -1.055,0 -2.048,0.612 -2.835,1.732 l 0,-2.17 c 0.898,-0.752 1.842,-1.102 3.008,-1.102 1.733,0 3.008,1.365 3.008,3.237 0,3.798 -4.646,3.763 -4.646,6.055 0,0.841 0.709,1.418 1.701,1.418 0.725,0 1.607,-0.28 2.52,-1.243 L 0,0 z"
             style="fill:#000000;fill-opacity:1;fill-rule:nonzero;stroke:none"
             id="path3366"
             inkscape:connector-curvature="0" /></g></g></g><path
       d="m 340.872,638.084 -1.543,0 0,-11.935 1.543,0 0,11.935 z"
       style="fill:#000000;fill-opacity:1;fill-rule:nonzero;stroke:none"
       id="path3368"
       inkscape:connector-curvature="0" /><g
       id="g3370"
       transform="translate(352.5738,638.0837)"><path
         d="m 0,0 -8.977,0 0,-1.54 3.717,0 0,-10.395 1.543,0 0,10.395 L 0,-1.54 0,0 z"
         style="fill:#000000;fill-opacity:1;fill-rule:nonzero;stroke:none"
         id="path3372"
         inkscape:connector-curvature="0" /></g><g
       id="g3374"
       transform="translate(358.1805,633.9711)"><path
         d="m 0,0 -2.882,4.113 -1.858,0 3.984,-5.618 0,-6.318 1.544,0 0,6.301 3.984,5.635 -1.858,0 L 0,0 z"
         style="fill:#000000;fill-opacity:1;fill-rule:nonzero;stroke:none"
         id="path3376"
         inkscape:connector-curvature="0" /></g><g
       id="g3378"
       transform="translate(241.8096,638.171)"><path
         d="m 0,0 -8.978,0 0,-1.54 3.718,0 0,-10.395 1.543,0 0,10.395 L 0,-1.54 0,0 z"
         style="fill:#000000;fill-opacity:1;fill-rule:nonzero;stroke:none"
         id="path3380"
         inkscape:connector-curvature="0" /></g><g
       id="g3382"
       transform="translate(252.5951,638.171)"><path
         d="m 0,0 -1.544,0 0,-5.198 -6.016,0 0,5.198 -1.543,0 0,-11.935 1.543,0 0,5.197 6.016,0 0,-5.197 1.544,0 L 0,0 z"
         style="fill:#000000;fill-opacity:1;fill-rule:nonzero;stroke:none"
         id="path3384"
         inkscape:connector-curvature="0" /></g><g
       id="g3386"
       transform="translate(261.5365,638.171)"><path
         d="m 0,0 -6.095,0 0,-11.935 6.237,0 0,1.54 -4.694,0 0,3.71 4.394,0 0,1.54 -4.394,0 0,3.605 L 0,-1.54 0,0 z"
         style="fill:#000000;fill-opacity:1;fill-rule:nonzero;stroke:none"
         id="path3388"
         inkscape:connector-curvature="0" /></g><g
       id="g3390"><g
         id="g3392"
         clip-path="url(#clipPath3394)"><g
           id="g3398"
           transform="translate(298.1311,646.1747)"><path
             d="m 0,0 c 19.896,8.325 21.83,25.341 21.83,27.913 l 0.001,22.036 -21.841,0 0.01,0 -21.84,0 0,-22.036 C -21.84,25.341 -19.896,8.325 0,0"
             style="fill:#ffffff;fill-opacity:1;fill-rule:nonzero;stroke:none"
             id="path3400"
             inkscape:connector-curvature="0" /></g><g
           id="g3402"
           transform="translate(298.1311,646.1205)"><path
             d="m 0,0 c 19.942,8.343 21.88,25.394 21.88,27.971 l 0.001,22.083 -21.891,0 0.01,0 -21.89,0 0,-22.083 C -21.89,25.394 -19.942,8.343 0,0 z"
             style="fill:none;stroke:#000000;stroke-width:0.40799999;stroke-linecap:butt;stroke-linejoin:miter;stroke-miterlimit:3.86400008;stroke-opacity:1;stroke-dasharray:none"
             id="path3404"
             inkscape:connector-curvature="0" /></g><g
           id="g3406"
           transform="translate(319.9163,682.9755)"><path
             d="m 0,0 c -0.154,0.01 -0.309,0.015 -0.466,0.015 -1.293,0 -2.505,-0.35 -3.545,-0.962 -1.042,-0.616 -2.26,-0.968 -3.559,-0.968 -1.293,0 -2.505,0.351 -3.545,0.962 l -0.011,0.006 c -1.043,0.616 -2.259,0.97 -3.557,0.97 -1.294,0 -2.506,-0.351 -3.545,-0.963 l -0.01,0.001 c -1.042,-0.616 -2.258,-0.97 -3.557,-0.97 -1.294,0 -2.505,0.351 -3.545,0.963 l -0.009,0.01 c -1.042,0.616 -2.258,0.969 -3.557,0.969 -1.293,0 -2.505,-0.35 -3.545,-0.962 l -0.008,0.004 c -1.04,-0.612 -2.252,-0.963 -3.545,-0.963 -1.299,0 -2.515,0.354 -3.557,0.97 l -0.008,-0.006 c -1.04,0.611 -2.252,0.962 -3.546,0.962 -0.172,0 -0.219,-0.014 -0.388,-0.026 l -0.122,-0.007 0,-8.893 c 0,-2.572 1.944,-19.587 21.84,-27.913 19.896,8.326 21.83,25.341 21.83,27.913 l 0,8.874 L 0,0 z"
             style="fill:#00467f;fill-opacity:1;fill-rule:nonzero;stroke:none"
             id="path3408"
             inkscape:connector-curvature="0" /></g><g
           id="g3410"
           transform="translate(319.9582,683.0175)"><path
             d="m 0,0 c -0.154,0.01 -0.31,0.015 -0.466,0.015 -1.297,0 -2.511,-0.351 -3.552,-0.964 -1.045,-0.618 -2.265,-0.97 -3.566,-0.97 -1.296,0 -2.51,0.351 -3.552,0.964 l -0.012,0.006 c -1.044,0.617 -2.263,0.972 -3.564,0.972 -1.296,0 -2.51,-0.352 -3.551,-0.965 l -0.01,0 c -1.045,-0.617 -2.263,-0.971 -3.564,-0.971 -1.296,0 -2.51,0.352 -3.552,0.964 l -0.009,0.011 c -1.044,0.617 -2.262,0.972 -3.563,0.972 -1.297,0 -2.51,-0.352 -3.552,-0.965 l -0.009,0.003 c -1.042,-0.612 -2.256,-0.964 -3.552,-0.964 -1.301,0 -2.519,0.354 -3.563,0.972 l -0.009,-0.006 c -1.042,0.612 -2.255,0.964 -3.552,0.964 -0.172,0 -0.219,-0.014 -0.389,-0.026 l -0.122,-0.007 0,-8.914 c 0,-2.578 1.948,-19.634 21.882,-27.979 19.934,8.345 21.872,25.401 21.872,27.979 L 0.046,-0.014 0,0 z"
             style="fill:none;stroke:#000000;stroke-width:0.34299999;stroke-linecap:butt;stroke-linejoin:miter;stroke-miterlimit:3.86400008;stroke-opacity:1;stroke-dasharray:none"
             id="path3412"
             inkscape:connector-curvature="0" /></g><g
           id="g3414"
           transform="translate(298.1258,671.4997)"><path
             d="M 0,0 C 2.195,1.543 4.405,1.787 6.483,0.908 8.205,0.179 9.409,0.097 11.032,0.485 l 2.225,-1.121 0.518,0.005 c 0.14,0.17 0.357,0.28 0.603,0.28 0.423,0 0.766,-0.325 0.766,-0.727 0,-0.402 -0.343,-0.727 -0.766,-0.727 -0.243,0 -0.46,0.107 -0.6,0.275 l -0.521,0 0,-0.603 0.518,0 c 0.14,0.171 0.357,0.28 0.603,0.28 0.423,0 0.766,-0.325 0.766,-0.727 0,-0.401 -0.343,-0.727 -0.766,-0.727 -0.243,0 -0.46,0.107 -0.6,0.275 l -0.521,0 0,-0.602 0.521,0 c 0.141,0.17 0.357,0.28 0.603,0.28 0.424,0 0.767,-0.326 0.767,-0.727 0,-0.402 -0.343,-0.728 -0.767,-0.728 -0.243,0 -0.459,0.108 -0.6,0.275 l -0.524,0 0,-0.602 0.525,0 c 0.14,0.17 0.357,0.28 0.603,0.28 0.423,0 0.766,-0.325 0.766,-0.727 0,-0.402 -0.343,-0.727 -0.766,-0.727 -0.243,0 -0.46,0.107 -0.6,0.275 l -0.528,0 0,-0.603 0.528,0 c 0.14,0.171 0.357,0.281 0.603,0.281 0.423,0 0.767,-0.326 0.767,-0.727 0,-0.402 -0.344,-0.728 -0.767,-0.728 -0.243,0 -0.46,0.107 -0.6,0.275 l -0.531,0 0,-0.602 0.532,0 c 0.14,0.17 0.357,0.28 0.602,0.28 0.424,0 0.767,-0.326 0.767,-0.727 0,-0.402 -0.343,-0.727 -0.767,-0.727 -0.243,0 -0.459,0.107 -0.6,0.274 l -0.534,0 0,-0.602 0.535,0 c 0.14,0.17 0.357,0.28 0.603,0.28 0.423,0 0.767,-0.325 0.767,-0.727 0,-0.402 -0.344,-0.727 -0.767,-0.727 -0.243,0 -0.46,0.107 -0.6,0.275 l -0.538,0 c -1.264,-1.094 -2.596,-1.513 -4.137,-1.513 -1.287,0 -2.054,0.2 -2.879,0.744 -1.358,0.896 -3.022,0.896 -4.354,0 0.285,-0.152 0.478,-0.457 0.478,-0.803 0,-0.501 -0.406,-0.907 -0.907,-0.907 l -2.917,0 c -0.5,0 -0.906,0.406 -0.906,0.907 0,0.346 0.192,0.651 0.478,0.803 -1.332,0.896 -2.996,0.896 -4.354,0 -0.825,-0.544 -1.592,-0.744 -2.879,-0.744 -1.541,0 -2.873,0.419 -4.138,1.513 l -0.537,0 c -0.14,-0.168 -0.357,-0.275 -0.6,-0.275 -0.423,0 -0.767,0.325 -0.767,0.727 0,0.402 0.344,0.727 0.767,0.727 0.246,0 0.463,-0.11 0.603,-0.28 l 0.534,0 0,0.602 -0.534,0 c -0.14,-0.167 -0.357,-0.274 -0.6,-0.274 -0.423,0 -0.766,0.325 -0.766,0.727 0,0.401 0.343,0.727 0.766,0.727 0.246,0 0.463,-0.11 0.603,-0.28 l 0.531,0 0,0.602 -0.53,0 c -0.14,-0.168 -0.357,-0.275 -0.6,-0.275 -0.424,0 -0.767,0.326 -0.767,0.728 0,0.401 0.343,0.727 0.767,0.727 0.246,0 0.462,-0.11 0.603,-0.281 l 0.527,0 0,0.603 -0.527,0 c -0.14,-0.168 -0.357,-0.275 -0.6,-0.275 -0.423,0 -0.766,0.325 -0.766,0.727 0,0.402 0.343,0.727 0.766,0.727 0.246,0 0.463,-0.11 0.603,-0.28 l 0.524,0 0,0.602 -0.523,0 c -0.141,-0.167 -0.357,-0.275 -0.6,-0.275 -0.424,0 -0.767,0.326 -0.767,0.728 0,0.401 0.343,0.727 0.767,0.727 0.245,0 0.462,-0.11 0.603,-0.28 l 0.52,0 0,0.602 -0.52,0 c -0.14,-0.168 -0.357,-0.275 -0.6,-0.275 -0.423,0 -0.767,0.326 -0.767,0.727 0,0.402 0.344,0.727 0.767,0.727 0.246,0 0.463,-0.109 0.603,-0.28 l 0.517,0 0,0.603 -0.52,0 c -0.14,-0.168 -0.357,-0.275 -0.6,-0.275 -0.423,0 -0.767,0.325 -0.767,0.727 0,0.402 0.344,0.727 0.767,0.727 0.246,0 0.463,-0.11 0.603,-0.28 l 0.517,-0.005 2.226,1.121 C -9.41,0.097 -8.205,0.179 -6.483,0.908 -4.405,1.787 -2.195,1.543 0,0"
             style="fill:#ffffff;fill-opacity:1;fill-rule:nonzero;stroke:none"
             id="path3416"
             inkscape:connector-curvature="0" /></g><g
           id="g3418"
           transform="translate(298.1258,671.5353)"><path
             d="M 0,0 C 2.202,1.553 4.418,1.798 6.502,0.914 8.229,0.18 9.437,0.098 11.065,0.488 l 2.231,-1.128 0.519,0.005 c 0.141,0.172 0.358,0.282 0.605,0.282 0.425,0 0.769,-0.328 0.769,-0.732 0,-0.404 -0.344,-0.731 -0.769,-0.731 -0.244,0 -0.461,0.108 -0.602,0.276 l -0.522,0 0,-0.606 0.519,0 c 0.141,0.172 0.358,0.282 0.605,0.282 0.425,0 0.769,-0.327 0.769,-0.732 0,-0.404 -0.344,-0.731 -0.769,-0.731 -0.244,0 -0.461,0.108 -0.602,0.276 l -0.522,0 0,-0.606 0.523,0 c 0.14,0.172 0.358,0.282 0.604,0.282 0.425,0 0.769,-0.327 0.769,-0.731 0,-0.404 -0.344,-0.732 -0.769,-0.732 -0.244,0 -0.461,0.108 -0.601,0.276 l -0.526,0 0,-0.606 0.526,0 c 0.141,0.172 0.358,0.282 0.605,0.282 0.424,0 0.769,-0.327 0.769,-0.731 0,-0.404 -0.345,-0.732 -0.769,-0.732 -0.244,0 -0.461,0.108 -0.602,0.277 l -0.529,0 0,-0.607 0.529,0 c 0.141,0.172 0.359,0.283 0.605,0.283 0.425,0 0.769,-0.328 0.769,-0.732 0,-0.404 -0.344,-0.732 -0.769,-0.732 -0.244,0 -0.461,0.108 -0.602,0.277 l -0.532,0 0,-0.606 0.533,0 c 0.141,0.171 0.358,0.282 0.605,0.282 0.424,0 0.768,-0.328 0.768,-0.732 0,-0.404 -0.344,-0.732 -0.768,-0.732 -0.244,0 -0.462,0.108 -0.602,0.277 l -0.536,0 0,-0.606 0.536,0 c 0.141,0.171 0.358,0.282 0.605,0.282 0.425,0 0.769,-0.328 0.769,-0.732 0,-0.404 -0.344,-0.732 -0.769,-0.732 -0.244,0 -0.461,0.109 -0.602,0.277 l -0.539,0 c -1.268,-1.101 -2.604,-1.522 -4.149,-1.522 -1.291,0 -2.06,0.201 -2.888,0.749 -1.362,0.901 -3.03,0.901 -4.367,0 0.287,-0.154 0.48,-0.46 0.48,-0.809 0,-0.503 -0.407,-0.912 -0.909,-0.912 l -2.926,0 c -0.502,0 -0.909,0.409 -0.909,0.912 0,0.349 0.193,0.655 0.48,0.809 -1.337,0.901 -3.005,0.901 -4.368,0 -0.827,-0.548 -1.596,-0.749 -2.887,-0.749 -1.545,0 -2.881,0.421 -4.149,1.522 l -0.539,0 c -0.141,-0.168 -0.358,-0.277 -0.602,-0.277 -0.425,0 -0.769,0.328 -0.769,0.732 0,0.404 0.344,0.732 0.769,0.732 0.246,0 0.464,-0.111 0.605,-0.282 l 0.536,0 0,0.606 -0.536,0 c -0.141,-0.169 -0.358,-0.277 -0.602,-0.277 -0.424,0 -0.769,0.328 -0.769,0.732 0,0.404 0.345,0.732 0.769,0.732 0.247,0 0.464,-0.111 0.605,-0.282 l 0.533,0 0,0.606 -0.532,0 c -0.141,-0.169 -0.359,-0.277 -0.602,-0.277 -0.425,0 -0.769,0.328 -0.769,0.732 0,0.404 0.344,0.732 0.769,0.732 0.246,0 0.464,-0.111 0.604,-0.283 l 0.53,0 0,0.607 -0.529,0 c -0.141,-0.169 -0.358,-0.277 -0.602,-0.277 -0.425,0 -0.769,0.328 -0.769,0.732 0,0.404 0.344,0.731 0.769,0.731 0.247,0 0.464,-0.11 0.605,-0.282 l 0.526,0 0,0.606 -0.526,0 c -0.141,-0.168 -0.358,-0.276 -0.602,-0.276 -0.424,0 -0.768,0.328 -0.768,0.732 0,0.404 0.344,0.731 0.768,0.731 0.247,0 0.465,-0.11 0.605,-0.282 l 0.523,0 0,0.606 -0.522,0 c -0.141,-0.168 -0.358,-0.276 -0.602,-0.276 -0.425,0 -0.769,0.327 -0.769,0.731 0,0.405 0.344,0.732 0.769,0.732 0.246,0 0.464,-0.11 0.605,-0.282 l 0.519,0 0,0.606 -0.522,0 c -0.141,-0.168 -0.358,-0.276 -0.602,-0.276 -0.425,0 -0.769,0.327 -0.769,0.731 0,0.404 0.344,0.732 0.769,0.732 0.246,0 0.464,-0.11 0.605,-0.282 l 0.519,-0.005 2.231,1.128 C -9.437,0.098 -8.229,0.18 -6.502,0.914 -4.418,1.798 -2.202,1.553 0,0 z m -1.172,-12.155 2.35,0 M 0,0 0,-12.155 m 11.327,12.367 0,-9.866 C 9.949,-10.388 8.806,-10.642 6.644,-9.516 4.135,-8.209 1.529,-9.032 0,-10.578 c -1.53,1.546 -4.135,2.369 -6.644,1.062 -2.162,-1.126 -3.305,-0.872 -4.684,-0.138 l 0,9.866"
             style="fill:none;stroke:#000000;stroke-width:0.36199999;stroke-linecap:round;stroke-linejoin:miter;stroke-miterlimit:3.86400008;stroke-opacity:1;stroke-dasharray:none"
             id="path3420"
             inkscape:connector-curvature="0" /></g><g
           id="g3422"
           transform="translate(310.4151,671.3814)"><path
             d="m 0,0 0,-10.045 c -1.995,-1.261 -3.927,-1.309 -5.592,-0.364 -2.154,1.222 -5.118,1.139 -6.697,-1.6 -1.579,2.739 -4.544,2.822 -6.697,1.6 -1.666,-0.945 -3.597,-0.897 -5.593,0.364 l 0,10.045"
             style="fill:none;stroke:#000000;stroke-width:0.36199999;stroke-linecap:round;stroke-linejoin:bevel;stroke-miterlimit:3.86400008;stroke-opacity:1;stroke-dasharray:none"
             id="path3424"
             inkscape:connector-curvature="0" /></g></g></g><g
       id="g3426"
       transform="translate(289.5567,681.0323)"><path
         d="m 0,0 0.85,-2.665 2.833,0 L 1.354,-4.344 2.193,-6.989 0,-5.331 l -2.193,-1.658 0.839,2.645 -2.329,1.679 2.833,0 L 0,0 z"
         style="fill:#ffffff;fill-opacity:1;fill-rule:nonzero;stroke:none"
         id="path3428"
         inkscape:connector-curvature="0" /></g><g
       id="g3430"
       transform="translate(289.5567,681.1704)"><path
         d="m 0,0 0.88,-2.761 2.934,0 L 1.402,-4.5 2.271,-7.24 0,-5.522 -2.271,-7.24 l 0.869,2.74 -2.412,1.739 2.934,0 L 0,0 z"
         style="fill:none;stroke:#000000;stroke-width:0.34299999;stroke-linecap:butt;stroke-linejoin:miter;stroke-miterlimit:3.86400008;stroke-opacity:1;stroke-dasharray:none"
         id="path3432"
         inkscape:connector-curvature="0" /></g><g
       id="g3434"
       transform="translate(306.6823,681.0591)"><path
         d="m 0,0 0.85,-2.666 2.833,0 L 1.354,-4.345 2.193,-6.989 0,-5.331 l -2.193,-1.658 0.839,2.644 -2.329,1.679 2.833,0 L 0,0 z"
         style="fill:#ffffff;fill-opacity:1;fill-rule:nonzero;stroke:none"
         id="path3436"
         inkscape:connector-curvature="0" /></g><g
       id="g3438"
       transform="translate(306.6823,681.1972)"><path
         d="m 0,0 0.88,-2.761 2.934,0 L 1.402,-4.501 2.271,-7.24 0,-5.522 -2.271,-7.24 l 0.869,2.739 -2.412,1.74 2.934,0 L 0,0 z"
         style="fill:none;stroke:#000000;stroke-width:0.34299999;stroke-linecap:butt;stroke-linejoin:miter;stroke-miterlimit:3.86400008;stroke-opacity:1;stroke-dasharray:none"
         id="path3440"
         inkscape:connector-curvature="0" /></g><g
       id="g3442"
       transform="translate(298.123,656.3223)"><path
         d="m 0,0 0.85,-2.665 2.833,0 L 1.354,-4.344 2.193,-6.989 0,-5.331 l -2.193,-1.658 0.839,2.645 -2.329,1.679 2.833,0 L 0,0 z"
         style="fill:#ffffff;fill-opacity:1;fill-rule:nonzero;stroke:none"
         id="path3444"
         inkscape:connector-curvature="0" /></g><g
       id="g3446"
       transform="translate(298.123,656.4604)"><path
         d="m 0,0 0.88,-2.761 2.934,0 L 1.402,-4.5 2.271,-7.24 0,-5.522 -2.271,-7.24 l 0.869,2.74 -2.412,1.739 2.934,0 L 0,0 z"
         style="fill:none;stroke:#000000;stroke-width:0.34299999;stroke-linecap:butt;stroke-linejoin:miter;stroke-miterlimit:3.86400008;stroke-opacity:1;stroke-dasharray:none"
         id="path3448"
         inkscape:connector-curvature="0" /></g></g></svg>